<?xml version="1.0" encoding="UTF-8"?>
<svg width="1196px" height="747px" viewBox="0 0 1196 747" version="1.1" xmlns="http://www.w3.org/2000/svg" xmlns:xlink="http://www.w3.org/1999/xlink">
    <!-- Generator: Sketch 43 (38999) - http://www.bohemiancoding.com/sketch -->
    <title>logo</title>
    <desc>Created with Sketch.</desc>
    <defs></defs>
    <g id="Page-1" stroke="none" stroke-width="1" fill="none" fill-rule="evenodd">
        <g id="logo" transform="translate(12.000000, 6.000000)">
            <g id="Group-9">
                <g id="Group-10">
                    <g id="Line-14" transform="translate(31.000000, 429.000000)">
                        <g id="path-4-link" transform="translate(5.000000, 7.000000)" fill-rule="nonzero" fill="#650A0B">
                            <path d="M199,62.737401 C185.831919,104.11257 178.066065,133.286752 175.702439,150.259947 C173.113821,168.848806 173.113821,198.022989 175.702439,237.782493 L15.7258537,292 C1.7473171,231.586207 -2.9121951,179.692308 1.7473171,136.318302 C6.4068293,92.944297 13.9138211,47.504863 24.2682927,0 L199,62.737401 Z" id="path-4"></path>
                        </g>
                        <path d="M208.764521,71.253759 C195.677919,112.372915 187.968135,141.336455 185.654652,157.949574 C183.123546,176.12544 183.123546,205.009765 185.691875,244.457647 L185.941153,248.286391 L17.0996465,305.508299 L15.8545503,300.127122 C1.7589196,239.20726 -2.9493483,186.77036 1.7759208,142.784243 C6.4551382,99.226808 13.9913018,53.610799 24.382995,5.935168 L25.596229,0.369021 L210.226386,66.660459 L208.764521,71.253759 Z" id="Shape" stroke="#FFF0EA" stroke-width="10"></path>
                        <path d="M197.157889,73.124519 L33.3199769,14.298534 C23.6873757,59.397825 16.6531205,102.600571 12.215853,143.905767 C7.7807972,185.190375 11.9391765,234.510222 24.7368952,291.833318 L174.946902,240.925817 C172.606439,202.96498 172.696888,174.871185 175.255005,156.501357 C177.574755,139.843235 184.869415,112.113965 197.157889,73.124519 Z" id="Shape" stroke="#BE5B5B" stroke-width="11"></path>
                    </g>
                    <g id="Line-13" transform="translate(733.000000, 0.000000)">
                        <g id="path-5-link" transform="translate(7.000000, 6.000000)" fill-rule="nonzero" fill="#650A0B">
                            <path d="M138.588022,0 L0,236.240964 C34.974143,256.042517 60.4079,273.916011 76.30127,289.861446 C92.194641,305.80688 119.445095,338.186398 158.052632,387 L429,236.240964 C392.14701,181.325301 346.21053,131.849398 291.19056,87.813253 C236.170599,43.7771084 185.303085,14.5060241 138.588022,0 Z" id="path-5"></path>
                        </g>
                        <path d="M147.070787,1.22491797 C194.446473,15.9360795 245.842283,45.5111654 301.31491,89.9096073 C356.72602,134.258809 403.01045,184.109474 440.15177,239.454781 L443.18027,243.967638 L163.768453,399.436417 L161.130973,396.101709 C122.638649,347.433777 95.476687,315.159406 79.75996,299.391194 C64.242792,283.823194 39.150099,266.189382 4.53655,246.591988 L0.118181,244.09041 L143.282495,0.048572607 L147.070787,1.22491797 Z" id="Shape" stroke="#FFF0EA" stroke-width="10"></path>
                        <path d="M148.106262,12.576979 L14.56002,240.223586 C47.449496,259.156207 71.644338,276.375402 87.196712,291.978723 C102.879433,307.712818 129.262528,338.988714 166.463054,385.921151 L428.07621,240.355805 C392.11939,187.884805 347.68407,140.470904 294.75378,98.1072633 C241.866899,55.7783673 192.965414,27.281847 148.106244,12.5769729 L148.106262,12.576979 Z" id="Shape" stroke="#BE5B5B" stroke-width="11"></path>
                    </g>
                    <polygon id="Line-16" stroke="#FFFFFF" stroke-width="11" fill="#461516" fill-rule="nonzero" stroke-linecap="square" stroke-linejoin="round" points="878 1 980 128 848 49.3152174"></polygon>
                    <polygon id="Line-17" stroke="#FFFFFF" stroke-width="11" fill="#461516" fill-rule="nonzero" stroke-linecap="round" stroke-linejoin="round" points="174 572 240 496.059113 200.492958 478"></polygon>
                    <g id="Line-15" transform="translate(0.000000, 12.000000)">
                        <g id="path-6-link" fill-rule="nonzero" fill="#650A0B">
                            <path d="M171.693227,557 C189.302789,442.548016 261.294821,351.400734 387.669323,283.558155 C514.043825,215.715576 641.454183,228.662633 769.900398,322.399326 L975,116.541119 C903.525896,61.127715 826.095618,26.170661 742.709163,11.6699571 C564.47924,-19.3237981 405.955015,13.9467569 295.996016,81.5840652 C111.613546,195.000285 12.9482072,347.775558 0,539.909885 L171.693227,557 Z" id="path-6"></path>
                        </g>
                        <g id="path-6-link" stroke="#FFF0EA" stroke-width="21">
                            <path d="M171.693227,557 C189.302789,442.548016 261.294821,351.400734 387.669323,283.558155 C514.043825,215.715576 641.454183,228.662633 769.900398,322.399326 L975,116.541119 C903.525896,61.127715 826.095618,26.170661 742.709163,11.6699571 C564.47924,-19.3237981 405.955015,13.9467569 295.996016,81.5840652 C111.613546,195.000285 12.9482072,347.775558 0,539.909885 L171.693227,557 Z" id="path-6"></path>
                        </g>
                        <path d="M167.088157,551.014438 C186.324395,437.151029 259.14756,346.311038 385.067877,278.712283 C512.113051,210.509662 640.500537,222.761446 769.319363,315.189914 L966.685157,117.094144 C897.289372,64.4185282 822.33556,31.0993377 741.766868,17.0886359 C573.886703,-12.1053211 414.679707,15.0372861 298.877632,86.2687519 C117.66685,197.734022 20.1401818,347.169192 5.8684063,534.966838 L167.088157,551.014438 Z" id="Shape" stroke="#BE5B5B" stroke-width="11"></path>
                    </g>
                    <g id="YOUGOTTHIS" transform="translate(40.000000, 62.000000)" fill-rule="nonzero" fill="#FFFFFF">
                        <path d="M61.780728,466.168069 C49.138305,460.481937 48.4158808,460.336139 34.6898215,460.919332 C26.9237616,461.356727 16.268005,461.210928 11.0304297,460.773534 C2.72255173,460.044542 1.45830942,459.461349 0.374673161,456.107989 C-1.25078123,450.567655 2.72255173,433.800855 6.3346726,431.613881 C7.960127,430.593293 11.7528539,430.155898 15.0037627,430.739091 L20.6025501,431.613881 L13.5589144,425.490354 C7.41830887,420.533213 6.3346726,418.492037 5.79285447,412.660106 C5.43164239,405.66179 7.77952095,397.059692 11.0304297,393.706332 C13.7395204,391.081963 21.3249742,395.893306 31.2583066,406.099184 C39.2049726,414.555484 44.8037599,419.95002 55.2789104,429.718503 C58.3492132,432.634469 65.5734549,436.862618 71.1722423,439.19539 C86.1625439,445.610514 88.8716346,448.818076 87.7879983,459.607148 C86.7043621,468.355043 83.8146654,472 77.6740599,472 C76.0486055,472 69.0049698,469.375631 61.780728,466.168069 Z" id="Shape"></path>
                        <path d="M65.5304964,421.01788 C45.1862823,413.379237 24.4470349,393.588209 18.9165689,376.922079 C9.83080337,349.318803 22.6693851,325.187636 47.7539986,323.10437 C60.790097,322.062737 76.5914284,328.833352 92.3927598,342.721793 C108.786641,356.957445 115.30469,368.589015 115.89724,384.387116 C116.292273,390.984126 115.502207,398.449163 114.317107,400.87964 C109.774224,410.080733 101.083492,419.629036 94.3679262,422.406724 C85.2821606,426.226045 78.5665948,425.878834 65.5304964,421.01788 Z M80.1791045,381.288887 C80.1791045,372.558302 60.7892444,356.668638 53.2707272,359.287814 C47.9286229,361.033931 50.1050357,369.939127 57.8214086,376.923594 C64.9442144,383.384227 75.8262787,388.797189 78.5962588,387.225684 C79.5855373,386.701849 80.1791045,384.082674 80.1791045,381.288887 Z" id="Shape"></path>
                        <path d="M112.877091,349.249825 C105.649903,345.923839 82.7638097,326.799419 60.4799815,305.346809 C48.0331586,293.37326 47.8324034,292.541763 53.8550596,282.563805 C55.2603461,280.235615 58.8739399,276.244431 61.6845128,273.749942 C65.6996169,270.091357 67.707169,269.42616 70.3169867,270.756554 C72.3245388,271.75435 85.1728722,281.898608 99.0249816,293.20696 C114.483133,306.178306 124.721648,313.495475 125.92618,312.497679 C128.335242,310.502088 122.513341,304.515313 96.2144086,281.732308 C81.9607888,269.42616 74.9343565,262.108991 74.9343565,259.614501 C74.9343565,252.131032 88.1842003,236 94.608367,236 C98.4227159,236 150.21756,279.903016 158.448523,290.213573 C166.478732,300.35783 169.088549,313.495475 165.2742,324.970127 C162.463627,333.118793 149.816049,346.256438 141.384331,349.748723 C133.354122,352.90841 120.907299,352.742111 112.877091,349.249825 Z" id="Shape"></path>
                        <path d="M174.616164,281.348071 C164.138107,278.723315 156.487461,272.348908 146.34204,258.287717 C132.03866,238.039601 124.886969,213.854352 127.548063,195.481062 C129.377566,182.544766 138.525076,165.671336 146.175722,161.171754 C149.169453,159.484412 153.660049,156.297208 156.154824,154.2349 C163.306515,148.235458 168.628703,148.610423 173.119299,155.359795 C178.275169,163.234063 180.270989,170.733365 180.104671,181.044905 C179.938352,189.106655 179.605716,189.48162 171.95507,193.606236 C166.965519,196.418474 163.472833,199.79316 162.474923,202.792881 C157.319053,217.604003 175.614075,243.664078 186.424769,236.914706 C188.919545,235.414846 188.919545,234.664915 186.424769,229.227921 C184.927904,225.853235 182.26681,221.166171 180.603626,218.728898 C175.946711,212.167009 176.611985,206.542532 183.098402,200.168126 C192.412231,190.98148 195.073325,190.793998 201.559742,199.230713 C204.719791,203.167846 207.214566,207.292463 207.380885,208.229875 C207.380885,209.354771 210.707252,215.16673 214.865212,221.353654 C218.856853,227.540578 223.513767,235.227363 225.176951,238.602049 C228.004364,244.414008 228.004364,244.601491 221.850584,254.913031 C218.524216,260.537508 211.871481,268.599257 207.048248,272.536391 C194.241733,283.035414 187.921635,284.91024 174.616164,281.348071 Z" id="Shape"></path>
                        <path d="M235.735825,232.191661 C229.593783,230.832978 219.446062,219.381224 214.105157,207.92947 C210.099478,199.389178 200.218802,168.527671 201.153461,167.168988 C201.420506,166.780793 201.019938,164.451623 200.352325,162.31655 C199.551189,160.181477 198.883576,153.193966 199.017098,146.59465 C199.284144,110.880705 224.119355,82.7365627 246.017068,93.2178293 C248.553998,94.3824145 254.428994,100.787633 259.102287,107.386949 C265.911942,116.897728 268.84944,123.108849 274.190345,139.218944 C280.732955,159.016892 280.866477,159.599185 281,178.03845 C281,193.372155 280.599432,198.224593 278.329547,203.853422 C274.991481,212.976006 268.448872,221.128102 259.7699,227.53332 C253.227291,232.385759 243.590438,234.204964 235.735825,232.191661 Z M250.132607,182.998478 C251.507731,177.983836 251.507731,173.354935 250.27012,168.726034 C249.582557,166.025842 248.757483,162.554167 248.482458,160.625458 C247.519871,154.453591 240.64425,142.109856 237.343952,140.95263 C231.430918,138.831051 228.818182,142.495597 228.818182,152.717753 C228.955694,169.690389 239.269126,189.363216 246.694797,186.470154 C248.207433,186.084412 249.72007,184.348574 250.132607,182.998478 Z" id="Shape"></path>
                        <path d="M319.124594,195.869985 C316.772958,194.927953 291.845621,115.232085 291.375294,112.782803 C290.434639,106.376989 289.964312,106.188582 282.75263,110.710334 C276.638377,114.47846 276.011274,114.47846 272.405433,111.840772 C266.761507,107.130614 262.842115,97.1450796 261.274357,82.2609814 C260.333703,73.9711038 260.80403,73.5942912 279.617115,63.6087569 C299.370855,53.24641 307.523192,48.7246586 314.421323,44.5797198 C317.556837,42.5072505 321.633005,41 323.357538,41 C329.942118,41 339.035109,61.7246938 338.408006,75.289948 C338.251231,80.3769183 339.211864,81.8262005 336.102,83.6008782 C335.788449,83.0356592 330.569221,85.6522949 328.06081,87.3479517 C322.887211,90.3624526 322.260108,94.884204 325.86595,102.985675 C327.120155,106.000176 328.374361,110.333521 328.844688,112.782803 C329.315015,115.232085 333.234408,127.855308 337.624128,140.855343 C350.793287,179.29023 350.636512,178.725011 346.560343,183.623575 C342.797726,188.145326 322.416884,197.188829 319.124594,195.869985 Z" id="Shape"></path>
                        <path d="M660.866812,199.061141 C653.511752,198.859936 640.895609,190.55553 636.518359,186.599432 C633.919367,184.225773 620.103672,168.40138 617.50468,161.082599 C616.683945,158.70894 616,154.752842 616,152.181378 C616,141.104303 631.593953,113.016006 637.749461,113.016006 C639.117351,113.016006 642.537078,116.972104 645.409648,121.917227 C648.282219,126.664545 649.780418,127.904084 651.701945,129.631618 C655.062656,133.400926 665.244062,142.291132 665.244062,136.9504 C665.244062,136.15918 661.003601,129.236008 655.805617,121.719422 C644.041758,104.31259 641.169187,96.0047838 641.442766,80.1803911 C641.716344,65.9384377 642.400289,61.9823395 647.051117,48.1359959 C649.102953,42.0040437 652.659469,35.4764817 655.805617,32.3116032 C661.104744,24.5080895 671.39957,15.6959909 676.187187,14.9047713 C678.102234,14.5091614 681.795539,13.5201369 684.394531,12.5311123 C690.139672,10.5530633 710.697553,14.5931689 714.387622,16.5833675 C717.640952,18.3380161 722.549782,21.839132 729.534922,26.9708707 C724.693176,23.1444633 733.091437,29.5423345 736.237586,33.8940425 C745.265664,46.3557517 743.897773,56.443802 730.629234,74.6418536 C721.054,87.8947825 717.360695,90.0706365 712.983445,85.1255138 C705.323258,76.4220978 691.233984,68.7077064 691.233984,73.0594144 C691.233984,74.0484389 693.559398,77.8067322 696.295179,81.5650254 C707.375093,96.4003936 711.615554,103.91698 715.582437,115.785275 C720.917211,132.005277 720.917211,143.477962 715.445648,158.31333 C711.341976,169.98382 699.599577,185.64639 697.115914,188.181871 C695.953932,189.368095 693.611881,191.678943 690.8761,194.448211 C688.140319,197.21748 681.929077,199.447492 679.603663,199.645297 C665.240811,200.634322 668.221873,199.262346 660.866812,199.061141 Z" id="Shape" transform="translate(679.000000, 106.000000) rotate(-2.000000) translate(-679.000000, -106.000000) "></path>
                        <path d="M587.40823,166.146995 C583.378548,165.612751 579.080221,164.722344 578.005639,164.366182 C576.931057,164.010019 573.841634,163.119612 571.289502,162.585368 C568.737371,162.051124 562.961493,160.626473 558.528843,159.557985 C554.096193,158.489497 548.723284,157.59909 546.57412,157.421009 C540.932565,157.064846 537.305852,150.297754 538.111788,141.215605 C538.514756,137.297815 539.052047,132.489618 539.455015,130.530723 C539.857984,128.571828 540.260952,125.544445 540.260952,123.941713 C540.395274,122.33898 541.872825,118.777353 543.61902,115.928051 C546.305475,111.83218 547.783025,111.119854 552.081352,111.476017 C557.319938,112.010261 557.319938,112.010261 558.797489,103.462356 C559.737748,98.8322405 566.319561,47.5448083 564.976334,48.0790524 C564.439043,48.4352152 562.297489,47.5174252 560,46.5 C557.702511,45.4825748 555.344055,45.9883704 553.96187,41 C553.040414,37.6744197 553.040414,33.0295703 553.96187,27.0654518 C554.230516,18.8737091 554.222732,15.1370884 554.894346,11.5921745 C555.565959,8.04726074 556.383964,3.91487473 558.528843,1.42173567 C561.080975,-0.893322035 567.259821,-0.00291522637 585.662035,1.42173567 C597.482435,2.31214248 608.631221,3.38063065 610.377417,3.91487473 C612.123612,4.44911882 616.287617,5.33952562 619.645685,5.69568835 C628.24234,7.12033924 630.660149,11.5723733 629.854213,24.3942313 C629.585567,29.9147535 629.182599,34.5448689 628.913954,34.9010317 C628.779631,35.079113 628.645308,35.7914385 628.376663,36.6818453 C626.630467,45.5859134 625.690208,47.9009711 622.869431,51.4625983 C620.720267,54.1338187 618.033813,55.3803883 614.407099,55.3803883 C609.168512,55.3803883 609.168512,55.3803883 607.690962,64.4625377 C606.885026,69.4488158 599.362953,117.886946 598.825662,118.777353 C598.422694,119.845841 600.034567,120.736248 602.452376,121.092411 C605.676121,121.448573 609.987412,122.601039 612.154666,127.244987 C617.741224,139.215752 610.243094,155.818276 607.55664,161.160717 C606.701481,164.056205 604.679037,167.343384 601,168 C596.306973,168.837588 589.6671,166.546295 587.40823,166.146995 Z" id="Shape"></path>
                        <path d="M392.529748,160.23346 C389.726299,155.928503 382.917922,115.390158 381.449448,93.8653725 C381.182453,89.919162 380.114472,82.0267408 379.179989,76.2867982 C377.311023,64.8069128 378.645999,65.5244057 365.830231,69.1118698 C361.291313,70.5468555 357.286385,63.9100468 355.417419,51.7126687 C353.14796,37.362812 353.548452,30.9053765 357.01939,27.856032 C359.555844,25.7035535 371.437129,20.8604769 379.71398,18.5286252 C381.048956,18.1698787 383.184917,17.6317591 384.386395,17.0936395 C385.587874,16.5555199 388.124328,15.838027 389.993294,15.2999074 C391.86226,14.941161 399.204628,12.7886825 406.546995,10.8155772 C413.755865,8.84247193 420.163749,7.58685947 420.831237,8.12497909 C424.969662,11.53307 429.375082,30.9053765 428.97459,42.9233815 C428.574097,50.8158026 426.705131,53.3270275 420.030251,54.7620132 C417.093304,55.3001328 414.156357,56.1969989 413.622367,56.7351185 C411.886898,58.1701041 413.622367,73.7755732 422.166213,130.278134 C425.236657,150.72668 424.702667,153.955397 417.89429,158.798474 C415.624831,160.412833 409.483942,162.027192 404.144038,162.565311 C396.000685,163.462177 394.398714,163.103431 392.529748,160.23346 Z" id="Shape"></path>
                        <path d="M448.545396,154.393023 C444.23326,153.681529 440.060225,152.614288 439.225618,151.902794 C437.834607,150.835553 437.278202,134.115443 437.278202,101.564589 C437.278202,99.2522337 437.417303,92.4930401 437.417303,86.4453406 C437.417303,80.2197675 437.278202,60.8315544 437.139101,43.3999498 L437,11.3827171 L440.755731,7.82524678 C443.815957,4.97927054 447.015283,4.08990296 458.282476,3.73415593 C477.061132,3.02266187 477.200233,3.20053538 476.922031,32.7275389 L476.643829,54.7838548 L483.459785,54.7838548 L490.414843,54.7838548 L490.553944,48.2025348 C490.553944,44.4671909 490.553944,34.6841476 490.414843,26.3240924 C490.275742,12.6278317 490.553944,10.8490965 493.475068,7.46949975 C498.065406,2.13329429 517.400466,-0.89055547 527.41575,2.31116781 C532.701593,3.91202944 533.397099,10.4933495 532.840694,56.56259 C532.562492,80.5755146 532.28429,110.458265 532.28429,122.909411 C532.145189,135.360557 531.588784,147.100209 530.754177,149.056818 C528.66766,153.859403 520.321591,156.349632 507.385183,155.816012 C491.944955,155.104517 490.275742,152.970035 490.553944,135.00481 L490.553944,113.837862 L490.414843,106.189301 L483.877089,106.722921 L477.478436,107.256542 L477.200233,127.000502 C477.061132,137.850786 476.365626,147.811703 475.809222,149.056818 C474.140008,152.436415 465.93304,156.171759 460.925398,155.993885 C458.421578,155.816012 452.857531,155.104517 448.545396,154.393023 Z" id="Shape"></path>
                    </g>
                </g>
                <path d="M838.711423,254.179703 C835.336413,257.62122 833.46155,256.82373 821.467944,256.82373 C809.474339,256.82373 804.609926,256.92502 802.730785,254.431316 C800.851644,251.937612 776.39377,116.437305 781.245763,110.206017 C786.097755,103.97473 800.880181,102.626562 816.228642,102.626562 C831.577103,102.626562 845.279606,100.46831 848.13242,104.254122 C850.985234,108.039934 842.086433,250.738187 838.711423,254.179703 Z M797.195303,269.276474 C801.064757,264.72334 804.953288,267.515184 820.469491,267.515184 C835.985695,267.515184 840.514344,264.739388 843.74368,269.024861 C846.973016,273.310334 846.482096,302.035077 843.74368,305.257112 C841.005264,308.479147 835.985695,307.77324 820.469491,307.77324 C804.953288,307.77324 799.89027,309.839906 797.195303,306.263563 C794.500335,302.687221 793.325848,273.829608 797.195303,269.276474 Z" id="!" fill="#FFFFFF" fill-rule="nonzero" transform="translate(814.648962, 205.190630) rotate(40.000000) translate(-814.648962, -205.190630) "></path>
            </g>
        </g>
    </g>
</svg>