<?xml version="1.0" encoding="UTF-8"?>
<svg width="1265px" height="1493px" viewBox="0 0 1265 1493" version="1.1" xmlns="http://www.w3.org/2000/svg" xmlns:xlink="http://www.w3.org/1999/xlink">
    <!-- Generator: Sketch 43 (38999) - http://www.bohemiancoding.com/sketch -->
    <title>logo</title>
    <desc>Created with Sketch.</desc>
    <defs></defs>
    <g id="Page-1" stroke="none" stroke-width="1" fill="none" fill-rule="evenodd">
        <g id="logo" transform="translate(-1.000000, -24.000000)">
            <g id="Group-9" transform="translate(82.000000, 117.000000)">
                <g id="Group-7" transform="translate(252.000000, 295.000000)" fill-rule="nonzero">
                    <g id="Group-6">
                        <g id="Group-5">
                            <path d="M142.609268,1130.61905 C128.454111,999.936487 117.332928,890.397142 109.245719,802.001018 C101.158511,713.604894 94.538759,652.229389 89.3864642,617.874503 C58.6708163,545.917014 37.4876108,495.652592 25.8368478,467.081236 C14.1860848,438.50988 9.94944373,402.795686 13.1269246,359.938652 C3.06490196,348.29847 -1.17173913,336.129189 0.417001279,323.430808 C2.80011189,304.383238 8.38817221,312.329732 8.36070332,300.414994 C8.28726337,268.560115 6.36226605,259.859766 13.1269246,239.304038 C18.7858693,222.108236 31.8403758,190.403812 53.639805,174.224839 C60.7834186,168.923034 73.6736432,166.098846 92.310479,165.752278 C103.600639,113.728841 120.366902,83.4843292 142.609268,75.0187423 C154.332329,70.55687 168.630993,68.9695724 185.505259,70.2568496 C194.508121,43.8018905 219.927968,27.9289151 261.764799,22.6379232 C267.992933,21.8502677 278.849326,24.4957636 294.333977,30.574411 C311.280541,5.17765022 335.906018,-4.34613505 368.210406,2.00305513 C400.514794,8.35224532 418.785309,29.5162126 423.02195,65.494957 C476.897936,54.5905864 508.143164,63.5852724 516.757634,92.4790153 C527.878817,129.780508 519.014174,170.203025 514.374524,222.637414 C510.779314,263.268195 508.25398,301.601655 501.6646,323.430808 C494.827351,346.081098 482.446653,371.427416 462.74046,405.176632 C446.74815,432.565378 425.027362,465.261854 404.751435,508.350972 C399.107054,520.346055 393.546463,546.271915 388.069661,586.128552 C404.929479,670.1976 417.639402,729.721258 426.199431,764.699526 C434.759459,799.677794 472.094859,921.65097 538.20563,1130.61905 L142.609268,1130.61905 Z" id="Line-4" fill="#000000"></path>
                            <path d="M149.122202,1130.61905 C135.614821,981.161908 125.002573,864.257892 117.285456,779.907004 C109.568339,695.556116 103.251524,636.989314 98.3350119,604.206596 C69.0249918,535.542069 48.8111849,487.577877 37.6935911,460.314021 C26.5759972,433.050165 22.5332358,398.970344 25.5653069,358.07456 C15.9637486,346.967063 11.9209872,335.354679 13.4370227,323.23741 C15.711076,305.061506 21.0434122,312.644348 21.0172003,301.274859 C20.9471212,270.877742 19.1102167,262.575544 25.5653069,242.9605 C30.9652836,226.551622 43.422382,196.298074 64.2242127,180.859493 C71.0409159,175.800312 83.3412504,173.105368 101.125216,172.774659 C111.898709,123.131949 127.897705,94.2715052 149.122202,86.1933255 C160.308785,81.9356401 174.45845,80.6734245 191.571196,82.4066788 C199.151374,56.6574811 222.902597,41.2584511 262.824866,36.2095888 C268.767985,35.4579785 279.127561,37.9824097 293.903594,43.7828823 C310.07464,19.5483433 333.57319,10.4603912 364.399246,16.5190259 C395.225301,22.5776607 412.65971,42.7731098 416.702471,77.1053734 C468.112952,66.7000151 497.928317,75.283081 506.148567,102.854571 C516.760815,138.44905 508.301842,177.021729 503.874514,227.056583 C500.44383,265.827994 498.034062,302.407215 491.746229,323.23741 C485.22187,344.851164 473.407745,369.037569 454.603359,401.242332 C439.342899,427.377698 418.61611,458.577899 399.268063,499.695147 C393.881983,511.141303 386.706912,540.481538 377.742848,587.71585 C395.547631,674.443792 408.534172,734.496549 416.702471,767.874121 C424.87077,801.251693 461.929552,922.16667 527.878817,1130.61905 L149.122202,1130.61905 Z" id="Line-4" fill="#441A0E"></path>
                            <path d="M152.936081,1132.20635 C137.788848,964.468844 126.523402,840.247042 119.13974,759.540946 C111.756079,678.83485 105.712213,622.798712 101.008143,591.432531 C72.9646049,525.73499 53.624234,479.843325 42.9870301,453.757537 C32.3498261,427.671748 28.4817519,395.064513 31.3828076,355.93583 C22.1961314,345.308286 18.3280572,334.197673 19.7785851,322.603989 C21.9543768,305.213463 27.0563033,312.468652 27.0312241,301.590437 C26.9641731,272.506776 25.2066411,264.563315 31.3828076,245.795834 C36.5494519,230.095982 48.4682806,201.149686 68.3712668,186.378205 C74.8934211,181.53763 86.6622597,178.959134 103.677783,178.642714 C116.209259,128.400272 132.628691,99.414489 152.936081,91.6853665 C163.639293,87.6116551 177.673167,86.5534568 195.037701,88.5107714 C202.384361,62.1246212 225.156307,46.5161954 263.353539,41.6854938 C269.039857,40.9663604 279.896249,44.6700547 295.922717,52.7965766 C310.913383,27.423065 333.155749,17.6347301 362.649815,23.431572 C392.14388,29.2284139 409.090444,49.5987324 413.489508,84.5425275 C463.348689,71.9189769 492.210806,78.7972662 500.07586,105.177396 C510.229555,139.233842 504.311884,174.764559 500.07586,222.637414 C496.793416,259.733517 492.587703,306.675279 486.571566,326.605403 C480.329124,347.285229 462.461797,379.125325 444.469946,409.938524 C429.868888,434.944585 411.347903,463.454854 392.835882,502.795431 C387.682534,513.747 380.533203,540.731059 371.387887,583.747606 C386.39327,661.332539 397.803635,716.092672 405.618983,748.028003 C413.434331,779.963334 451.539709,908.022783 519.935115,1132.20635 L152.936081,1132.20635 Z" id="Line-4" fill="#FCB579"></path>
                        </g>
                        <path d="M49.3358634,245.837456 C54.9231056,269.260123 59.1634598,285.411668 62.056926,294.29209 C71.5063691,323.293652 82.854364,339.011755 101.01518,341.913655 C127.517394,346.148418 144.743833,334.238146 152.694497,306.182837 C144.895512,299.936353 140.390136,294.113553 139.178368,288.714437 C133.672719,264.183635 131.412731,242.875509 127.252372,225.987002 C122.985804,208.667351 116.802793,196.017282 109.760911,191.050202 C101.180227,184.99771 81.1694406,180.156922 68.4174573,187.080111 C60.8929607,191.165242 51.0871416,204.134205 39,225.987002 C40.5466845,212.686577 42.9318838,203.158358 46.1555977,197.402348 C50.9911687,188.768331 48.0054436,184.714686 65.2371917,179.13993 C70.8023402,177.339512 74.6213671,174.928764 81.1385199,174.375821 C85.7624197,173.983509 93.978106,174.512855 105.785579,175.963857 L120.891841,184.698057 C119.831752,179.581051 119.301708,176.140306 119.301708,174.375821 C119.301708,172.611336 119.831752,167.582554 120.891841,159.289475 C122.559729,171.052592 123.88484,178.992773 124.867173,183.110021 C131.24668,209.848427 136.511944,224.869018 139.178368,236.309238 C145.073932,261.603992 148.240653,285.408943 152.694497,294.29209 C160.222994,309.307601 186.882353,312.534982 194.833017,309.35891 C206.836218,304.56396 211.899862,303.054625 220.275142,294.29209 C228.650423,285.529554 228.225806,286.652485 228.225806,274.42211 C228.225806,262.191736 221.560371,260.119765 220.275142,249.807547 C215.608318,212.362619 215.359607,175.108291 211.529412,154.525366 C206.644393,128.273967 198.428706,105.24744 186.882353,85.4457855 C191.081314,86.0928618 193.731535,86.0928618 194.833017,85.4457855 C195.934499,84.7987093 197.789654,80.8286184 200.398482,73.535513 C202.50473,89.6129572 204.359885,99.9351935 205.963947,104.502222 C215.227153,130.876103 222.962623,145.704725 224.250474,159.289475 C226.508692,183.110021 226.508692,224.876899 228.225806,236.309238 C231.406072,257.483056 238.296648,272.304728 248.897533,280.774256 C261.618596,280.774256 272.484503,278.127528 281.495256,272.834074 C290.506009,267.540619 298.986717,258.541747 306.937381,245.837456 C309.587603,220.95822 310.912713,201.901784 310.912713,188.668148 C310.912713,175.434512 309.587603,158.230785 306.937381,137.056967 C290.429698,120.08539 282.479034,104.999045 283.085389,91.7979309 C283.994922,71.9962599 287.855787,54.4790769 310.912713,50.508986 C326.283997,47.8622588 358.88172,55.5377678 408.705882,73.535513 L415.066414,85.4457855 L388.034156,77.5056038 C393.864643,88.6218582 392.539532,97.6207308 384.058824,104.502222 C375.578115,111.383712 353.8463,107.148949 318.863378,91.7979309 C318.776867,81.9392139 317.981801,75.0577231 316.478178,71.1534585 C314.974556,67.2491938 311.79429,63.8084484 306.937381,60.8312222 C297.126116,68.6306024 292.885762,78.9528386 294.216319,91.7979309 C295.546876,104.643023 302.172429,117.347314 314.092979,129.910803 C320.967293,134.612289 325.472669,138.053034 327.609108,140.233039 C329.745547,142.413045 337.431189,151.411917 350.666034,167.229657 C360.736875,171.464421 370.807717,172.258439 380.878558,169.611712 C390.949399,166.964984 401.02024,160.083494 411.091082,148.967239 C407.921818,158.225181 405.006574,164.312653 402.345351,167.229657 C399.684128,170.146661 391.733464,175.969461 378.493359,184.698057 C396.257741,185.754223 408.448759,185.224878 415.066414,183.110021 C421.684068,180.995163 435.995264,173.054981 458,159.289475 C443.973623,174.324774 431.782605,184.117665 421.426945,188.668148 C411.071285,193.218631 396.76009,195.07134 378.493359,194.226275 L384.058824,202.960475 C391.302762,205.607202 396.603205,206.930566 399.960152,206.930566 C403.317099,206.930566 414.183007,205.607202 432.557875,202.960475 C420.376286,208.968441 410.305444,212.673859 402.345351,214.076729 C394.385258,215.4796 387.22966,215.954023 380.878558,215.5 L380.878558,225.987002 C380.878558,228.810178 380.083491,232.250923 378.493359,236.309238 L421.426945,280.774256 L372.132827,245.837456 C370.440054,249.384602 369.114943,251.766657 368.157495,252.98362 C367.200048,254.200583 365.609915,255.523946 363.387097,256.95371 C366.518477,266.415492 368.903676,272.238292 370.542694,274.42211 C372.181713,276.605928 378.0122,283.229255 388.034156,294.29209 C378.159945,289.504481 370.739325,284.998536 365.772296,280.774256 C360.805267,276.549975 356.564913,270.197829 353.051233,261.717819 C336.942427,270.939229 325.546475,278.350065 318.863378,283.950328 C312.18028,289.550592 299.724239,301.725537 281.495256,320.475164 C295.182761,297.882981 306.048668,282.531963 314.092979,274.42211 C328.084187,260.316907 352.456586,249.086394 355.436433,245.837456 C363.761075,236.761068 364.25184,235.088183 368.157495,225.987002 C372.063151,216.88582 372.132827,218.031252 372.132827,206.930566 C372.132827,199.530108 370.807717,192.119272 368.157495,184.698057 C356.493453,183.351977 347.747722,180.440577 341.920304,175.963857 C336.092885,171.487137 327.612176,161.164901 316.478178,144.997148 C318.690339,160.94875 320.01545,172.329678 320.45351,179.13993 C322.863432,216.605479 321.362289,238.766543 318.863378,245.837456 C315.683112,254.836329 305.877293,266.481929 289.44592,280.774256 C279.375079,287.655746 269.039216,291.096492 258.43833,291.096492 C247.837445,291.096492 240.946869,287.655746 237.766603,280.774256 C234.232489,290.057103 231.052224,296.409248 228.225806,299.830692 C225.399389,303.252135 219.833924,307.486899 211.529412,312.534982 C205.493918,329.59682 197.278232,340.977747 186.882353,346.677764 C176.486474,352.37778 157.669902,355.818525 130.432638,357 C151.975371,351.7451 167.346655,346.716319 176.54649,341.913655 C185.746324,337.110991 193.696988,329.964827 200.398482,320.475164 C190.12652,320.329124 182.7059,319.799778 178.136622,318.887128 C173.567345,317.974477 167.736858,315.857095 160.645161,312.534982 C159.33563,324.348424 156.685409,332.288606 152.694497,336.355528 C132.322363,357.115665 103.114813,360.875955 85.9089184,350.647855 C63.6470588,337.414218 51.4560405,302.477419 49.3358634,245.837456 Z" id="Line-5" fill="#441A0E"></path>
                        <path d="M319.5,59.5 C323.9026,65.1417846 326.569267,69.4751179 327.5,72.5 C328.430733,75.5248821 328.430733,80.1915487 327.5,86.5 C352.166667,96.5 368,100.333333 375,98 C382,95.6666667 383.666667,88.5 380,76.5 L319.5,59.5 Z" id="Line-12" fill="#BA3A3A"></path>
                        <path d="M271,306 C250.540984,334.963585 237.688525,364.980392 232.442623,396.05042 C227.196721,427.120448 233.622951,459.770308 251.721311,494 C232.57377,474.515406 223,445.288515 223,406.319328 C223,367.35014 239,333.910364 271,306 Z" id="Line-6" fill="#441A0E"></path>
                        <path d="M255,452 C262.338343,476.556525 269.171676,495.085937 275.5,507.588235 C281.828324,520.090534 288.661657,528.561122 296,533 C282.333333,529.294118 272.083333,520.823529 265.25,507.588235 C258.416667,494.352941 255,475.823529 255,452 Z" id="Line-7" fill="#441A0E"></path>
                        <path d="M213,364 C207.666667,378.142857 205,390.97619 205,402.5 C205,414.02381 207.666667,426.857143 213,441" id="Line-8" fill="#441A0E"></path>
                        <path d="M104.5,624.5 C123.183866,625.635325 135.961644,624.819948 142.833333,622.05387 C147.745815,620.076436 160.861933,609.246823 179.25,598.153504 C184.139049,595.203995 192.055715,591.48616 203,587 C190.029029,596.230943 180.792918,603.135493 175.291667,607.71365 C166.170772,615.304085 158.238087,625.854571 151.541667,629.22398 C141.370208,634.341908 129.550132,636.92087 116.081439,636.960866 C113.800906,636.967638 110.27376,636.814016 105.5,636.5 L104.5,624.5 Z" id="Line-9" fill="#441A0E"></path>
                        <path d="M377,565 C356.797468,584.034483 340.050633,598.045977 326.759494,607.034483 C313.468354,616.022989 288.21519,625.011494 251,634 C277.75596,629.702749 298.224314,624.944128 312.405063,619.724138 C326.585812,614.504148 347.054167,603.136332 373.810127,585.62069 L377,565 Z" id="Line-10" fill="#441A0E"></path>
                        <path d="M399,491 C379.5,519.04811 361.844595,538.099656 346.033784,548.154639 C330.222973,558.209622 308.878378,564.824742 282,568 C313.621622,568 338.128378,561.38488 355.52027,548.154639 C363.99148,541.710479 382.62742,527.110951 388.722973,518.783505 C393.00229,512.937311 396.427966,503.676143 399,491 Z" id="Line-11" fill="#441A0E"></path>
                    </g>
                </g>
                <g id="Group-10">
                    <g id="Line-14" transform="translate(31.000000, 429.000000)">
                        <g id="path-4-link" transform="translate(5.000000, 7.000000)" fill-rule="nonzero" fill="#650A0B">
                            <path d="M199,62.737401 C185.831919,104.11257 178.066065,133.286752 175.702439,150.259947 C173.113821,168.848806 173.113821,198.022989 175.702439,237.782493 L15.7258537,292 C1.7473171,231.586207 -2.9121951,179.692308 1.7473171,136.318302 C6.4068293,92.944297 13.9138211,47.504863 24.2682927,0 L199,62.737401 Z" id="path-4"></path>
                        </g>
                        <path d="M208.764521,71.253759 C195.677919,112.372915 187.968135,141.336455 185.654652,157.949574 C183.123546,176.12544 183.123546,205.009765 185.691875,244.457647 L185.941153,248.286391 L17.0996465,305.508299 L15.8545503,300.127122 C1.7589196,239.20726 -2.9493483,186.77036 1.7759208,142.784243 C6.4551382,99.226808 13.9913018,53.610799 24.382995,5.935168 L25.596229,0.369021 L210.226386,66.660459 L208.764521,71.253759 Z" id="Shape" stroke="#FFF0EA" stroke-width="10"></path>
                        <path d="M197.157889,73.124519 L33.3199769,14.298534 C23.6873757,59.397825 16.6531205,102.600571 12.215853,143.905767 C7.7807972,185.190375 11.9391765,234.510222 24.7368952,291.833318 L174.946902,240.925817 C172.606439,202.96498 172.696888,174.871185 175.255005,156.501357 C177.574755,139.843235 184.869415,112.113965 197.157889,73.124519 Z" id="Shape" stroke="#BE5B5B" stroke-width="11"></path>
                    </g>
                    <g id="Line-13" transform="translate(733.000000, 0.000000)">
                        <g id="path-5-link" transform="translate(7.000000, 6.000000)" fill-rule="nonzero" fill="#650A0B">
                            <path d="M138.588022,0 L0,236.240964 C34.974143,256.042517 60.4079,273.916011 76.30127,289.861446 C92.194641,305.80688 119.445095,338.186398 158.052632,387 L429,236.240964 C392.14701,181.325301 346.21053,131.849398 291.19056,87.813253 C236.170599,43.7771084 185.303085,14.5060241 138.588022,0 Z" id="path-5"></path>
                        </g>
                        <path d="M147.070787,1.22491797 C194.446473,15.9360795 245.842283,45.5111654 301.31491,89.9096073 C356.72602,134.258809 403.01045,184.109474 440.15177,239.454781 L443.18027,243.967638 L163.768453,399.436417 L161.130973,396.101709 C122.638649,347.433777 95.476687,315.159406 79.75996,299.391194 C64.242792,283.823194 39.150099,266.189382 4.53655,246.591988 L0.118181,244.09041 L143.282495,0.048572607 L147.070787,1.22491797 Z" id="Shape" stroke="#FFF0EA" stroke-width="10"></path>
                        <path d="M148.106262,12.576979 L14.56002,240.223586 C47.449496,259.156207 71.644338,276.375402 87.196712,291.978723 C102.879433,307.712818 129.262528,338.988714 166.463054,385.921151 L428.07621,240.355805 C392.11939,187.884805 347.68407,140.470904 294.75378,98.1072633 C241.866899,55.7783673 192.965414,27.281847 148.106244,12.5769729 L148.106262,12.576979 Z" id="Shape" stroke="#BE5B5B" stroke-width="11"></path>
                    </g>
                    <polygon id="Line-16" stroke="#FFFFFF" stroke-width="11" fill="#461516" fill-rule="nonzero" stroke-linecap="square" stroke-linejoin="round" points="878 1 980 128 848 49.3152174"></polygon>
                    <polygon id="Line-17" stroke="#FFFFFF" stroke-width="11" fill="#461516" fill-rule="nonzero" stroke-linecap="round" stroke-linejoin="round" points="174 572 240 496.059113 200.492958 478"></polygon>
                    <g id="Line-15" transform="translate(0.000000, 12.000000)">
                        <g id="path-6-link" fill-rule="nonzero" fill="#650A0B">
                            <path d="M171.693227,557 C189.302789,442.548016 261.294821,351.400734 387.669323,283.558155 C514.043825,215.715576 641.454183,228.662633 769.900398,322.399326 L975,116.541119 C903.525896,61.127715 826.095618,26.170661 742.709163,11.6699571 C564.47924,-19.3237981 405.955015,13.9467569 295.996016,81.5840652 C111.613546,195.000285 12.9482072,347.775558 0,539.909885 L171.693227,557 Z" id="path-6"></path>
                        </g>
                        <g id="path-6-link" stroke="#FFF0EA" stroke-width="21">
                            <path d="M171.693227,557 C189.302789,442.548016 261.294821,351.400734 387.669323,283.558155 C514.043825,215.715576 641.454183,228.662633 769.900398,322.399326 L975,116.541119 C903.525896,61.127715 826.095618,26.170661 742.709163,11.6699571 C564.47924,-19.3237981 405.955015,13.9467569 295.996016,81.5840652 C111.613546,195.000285 12.9482072,347.775558 0,539.909885 L171.693227,557 Z" id="path-6"></path>
                        </g>
                        <path d="M167.088157,551.014438 C186.324395,437.151029 259.14756,346.311038 385.067877,278.712283 C512.113051,210.509662 640.500537,222.761446 769.319363,315.189914 L966.685157,117.094144 C897.289372,64.4185282 822.33556,31.0993377 741.766868,17.0886359 C573.886703,-12.1053211 414.679707,15.0372861 298.877632,86.2687519 C117.66685,197.734022 20.1401818,347.169192 5.8684063,534.966838 L167.088157,551.014438 Z" id="Shape" stroke="#BE5B5B" stroke-width="11"></path>
                    </g>
                    <g id="YOUGOTTHIS" transform="translate(40.000000, 62.000000)" fill-rule="nonzero" fill="#FFFFFF">
                        <path d="M61.780728,466.168069 C49.138305,460.481937 48.4158808,460.336139 34.6898215,460.919332 C26.9237616,461.356727 16.268005,461.210928 11.0304297,460.773534 C2.72255173,460.044542 1.45830942,459.461349 0.374673161,456.107989 C-1.25078123,450.567655 2.72255173,433.800855 6.3346726,431.613881 C7.960127,430.593293 11.7528539,430.155898 15.0037627,430.739091 L20.6025501,431.613881 L13.5589144,425.490354 C7.41830887,420.533213 6.3346726,418.492037 5.79285447,412.660106 C5.43164239,405.66179 7.77952095,397.059692 11.0304297,393.706332 C13.7395204,391.081963 21.3249742,395.893306 31.2583066,406.099184 C39.2049726,414.555484 44.8037599,419.95002 55.2789104,429.718503 C58.3492132,432.634469 65.5734549,436.862618 71.1722423,439.19539 C86.1625439,445.610514 88.8716346,448.818076 87.7879983,459.607148 C86.7043621,468.355043 83.8146654,472 77.6740599,472 C76.0486055,472 69.0049698,469.375631 61.780728,466.168069 Z" id="Shape"></path>
                        <path d="M65.5304964,421.01788 C45.1862823,413.379237 24.4470349,393.588209 18.9165689,376.922079 C9.83080337,349.318803 22.6693851,325.187636 47.7539986,323.10437 C60.790097,322.062737 76.5914284,328.833352 92.3927598,342.721793 C108.786641,356.957445 115.30469,368.589015 115.89724,384.387116 C116.292273,390.984126 115.502207,398.449163 114.317107,400.87964 C109.774224,410.080733 101.083492,419.629036 94.3679262,422.406724 C85.2821606,426.226045 78.5665948,425.878834 65.5304964,421.01788 Z M80.1791045,381.288887 C80.1791045,372.558302 60.7892444,356.668638 53.2707272,359.287814 C47.9286229,361.033931 50.1050357,369.939127 57.8214086,376.923594 C64.9442144,383.384227 75.8262787,388.797189 78.5962588,387.225684 C79.5855373,386.701849 80.1791045,384.082674 80.1791045,381.288887 Z" id="Shape"></path>
                        <path d="M112.877091,349.249825 C105.649903,345.923839 82.7638097,326.799419 60.4799815,305.346809 C48.0331586,293.37326 47.8324034,292.541763 53.8550596,282.563805 C55.2603461,280.235615 58.8739399,276.244431 61.6845128,273.749942 C65.6996169,270.091357 67.707169,269.42616 70.3169867,270.756554 C72.3245388,271.75435 85.1728722,281.898608 99.0249816,293.20696 C114.483133,306.178306 124.721648,313.495475 125.92618,312.497679 C128.335242,310.502088 122.513341,304.515313 96.2144086,281.732308 C81.9607888,269.42616 74.9343565,262.108991 74.9343565,259.614501 C74.9343565,252.131032 88.1842003,236 94.608367,236 C98.4227159,236 150.21756,279.903016 158.448523,290.213573 C166.478732,300.35783 169.088549,313.495475 165.2742,324.970127 C162.463627,333.118793 149.816049,346.256438 141.384331,349.748723 C133.354122,352.90841 120.907299,352.742111 112.877091,349.249825 Z" id="Shape"></path>
                        <path d="M174.616164,281.348071 C164.138107,278.723315 156.487461,272.348908 146.34204,258.287717 C132.03866,238.039601 124.886969,213.854352 127.548063,195.481062 C129.377566,182.544766 138.525076,165.671336 146.175722,161.171754 C149.169453,159.484412 153.660049,156.297208 156.154824,154.2349 C163.306515,148.235458 168.628703,148.610423 173.119299,155.359795 C178.275169,163.234063 180.270989,170.733365 180.104671,181.044905 C179.938352,189.106655 179.605716,189.48162 171.95507,193.606236 C166.965519,196.418474 163.472833,199.79316 162.474923,202.792881 C157.319053,217.604003 175.614075,243.664078 186.424769,236.914706 C188.919545,235.414846 188.919545,234.664915 186.424769,229.227921 C184.927904,225.853235 182.26681,221.166171 180.603626,218.728898 C175.946711,212.167009 176.611985,206.542532 183.098402,200.168126 C192.412231,190.98148 195.073325,190.793998 201.559742,199.230713 C204.719791,203.167846 207.214566,207.292463 207.380885,208.229875 C207.380885,209.354771 210.707252,215.16673 214.865212,221.353654 C218.856853,227.540578 223.513767,235.227363 225.176951,238.602049 C228.004364,244.414008 228.004364,244.601491 221.850584,254.913031 C218.524216,260.537508 211.871481,268.599257 207.048248,272.536391 C194.241733,283.035414 187.921635,284.91024 174.616164,281.348071 Z" id="Shape"></path>
                        <path d="M235.735825,232.191661 C229.593783,230.832978 219.446062,219.381224 214.105157,207.92947 C210.099478,199.389178 200.218802,168.527671 201.153461,167.168988 C201.420506,166.780793 201.019938,164.451623 200.352325,162.31655 C199.551189,160.181477 198.883576,153.193966 199.017098,146.59465 C199.284144,110.880705 224.119355,82.7365627 246.017068,93.2178293 C248.553998,94.3824145 254.428994,100.787633 259.102287,107.386949 C265.911942,116.897728 268.84944,123.108849 274.190345,139.218944 C280.732955,159.016892 280.866477,159.599185 281,178.03845 C281,193.372155 280.599432,198.224593 278.329547,203.853422 C274.991481,212.976006 268.448872,221.128102 259.7699,227.53332 C253.227291,232.385759 243.590438,234.204964 235.735825,232.191661 Z M250.132607,182.998478 C251.507731,177.983836 251.507731,173.354935 250.27012,168.726034 C249.582557,166.025842 248.757483,162.554167 248.482458,160.625458 C247.519871,154.453591 240.64425,142.109856 237.343952,140.95263 C231.430918,138.831051 228.818182,142.495597 228.818182,152.717753 C228.955694,169.690389 239.269126,189.363216 246.694797,186.470154 C248.207433,186.084412 249.72007,184.348574 250.132607,182.998478 Z" id="Shape"></path>
                        <path d="M319.124594,195.869985 C316.772958,194.927953 291.845621,115.232085 291.375294,112.782803 C290.434639,106.376989 289.964312,106.188582 282.75263,110.710334 C276.638377,114.47846 276.011274,114.47846 272.405433,111.840772 C266.761507,107.130614 262.842115,97.1450796 261.274357,82.2609814 C260.333703,73.9711038 260.80403,73.5942912 279.617115,63.6087569 C299.370855,53.24641 307.523192,48.7246586 314.421323,44.5797198 C317.556837,42.5072505 321.633005,41 323.357538,41 C329.942118,41 339.035109,61.7246938 338.408006,75.289948 C338.251231,80.3769183 339.211864,81.8262005 336.102,83.6008782 C335.788449,83.0356592 330.569221,85.6522949 328.06081,87.3479517 C322.887211,90.3624526 322.260108,94.884204 325.86595,102.985675 C327.120155,106.000176 328.374361,110.333521 328.844688,112.782803 C329.315015,115.232085 333.234408,127.855308 337.624128,140.855343 C350.793287,179.29023 350.636512,178.725011 346.560343,183.623575 C342.797726,188.145326 322.416884,197.188829 319.124594,195.869985 Z" id="Shape"></path>
                        <path d="M660.866812,199.061141 C653.511752,198.859936 640.895609,190.55553 636.518359,186.599432 C633.919367,184.225773 620.103672,168.40138 617.50468,161.082599 C616.683945,158.70894 616,154.752842 616,152.181378 C616,141.104303 631.593953,113.016006 637.749461,113.016006 C639.117351,113.016006 642.537078,116.972104 645.409648,121.917227 C648.282219,126.664545 649.780418,127.904084 651.701945,129.631618 C655.062656,133.400926 665.244062,142.291132 665.244062,136.9504 C665.244062,136.15918 661.003601,129.236008 655.805617,121.719422 C644.041758,104.31259 641.169187,96.0047838 641.442766,80.1803911 C641.716344,65.9384377 642.400289,61.9823395 647.051117,48.1359959 C649.102953,42.0040437 652.659469,35.4764817 655.805617,32.3116032 C661.104744,24.5080895 671.39957,15.6959909 676.187187,14.9047713 C678.102234,14.5091614 681.795539,13.5201369 684.394531,12.5311123 C690.139672,10.5530633 710.697553,14.5931689 714.387622,16.5833675 C717.640952,18.3380161 722.549782,21.839132 729.534922,26.9708707 C724.693176,23.1444633 733.091437,29.5423345 736.237586,33.8940425 C745.265664,46.3557517 743.897773,56.443802 730.629234,74.6418536 C721.054,87.8947825 717.360695,90.0706365 712.983445,85.1255138 C705.323258,76.4220978 691.233984,68.7077064 691.233984,73.0594144 C691.233984,74.0484389 693.559398,77.8067322 696.295179,81.5650254 C707.375093,96.4003936 711.615554,103.91698 715.582437,115.785275 C720.917211,132.005277 720.917211,143.477962 715.445648,158.31333 C711.341976,169.98382 699.599577,185.64639 697.115914,188.181871 C695.953932,189.368095 693.611881,191.678943 690.8761,194.448211 C688.140319,197.21748 681.929077,199.447492 679.603663,199.645297 C665.240811,200.634322 668.221873,199.262346 660.866812,199.061141 Z" id="Shape" transform="translate(679.000000, 106.000000) rotate(-2.000000) translate(-679.000000, -106.000000) "></path>
                        <path d="M587.40823,166.146995 C583.378548,165.612751 579.080221,164.722344 578.005639,164.366182 C576.931057,164.010019 573.841634,163.119612 571.289502,162.585368 C568.737371,162.051124 562.961493,160.626473 558.528843,159.557985 C554.096193,158.489497 548.723284,157.59909 546.57412,157.421009 C540.932565,157.064846 537.305852,150.297754 538.111788,141.215605 C538.514756,137.297815 539.052047,132.489618 539.455015,130.530723 C539.857984,128.571828 540.260952,125.544445 540.260952,123.941713 C540.395274,122.33898 541.872825,118.777353 543.61902,115.928051 C546.305475,111.83218 547.783025,111.119854 552.081352,111.476017 C557.319938,112.010261 557.319938,112.010261 558.797489,103.462356 C559.737748,98.8322405 566.319561,47.5448083 564.976334,48.0790524 C564.439043,48.4352152 562.297489,47.5174252 560,46.5 C557.702511,45.4825748 555.344055,45.9883704 553.96187,41 C553.040414,37.6744197 553.040414,33.0295703 553.96187,27.0654518 C554.230516,18.8737091 554.222732,15.1370884 554.894346,11.5921745 C555.565959,8.04726074 556.383964,3.91487473 558.528843,1.42173567 C561.080975,-0.893322035 567.259821,-0.00291522637 585.662035,1.42173567 C597.482435,2.31214248 608.631221,3.38063065 610.377417,3.91487473 C612.123612,4.44911882 616.287617,5.33952562 619.645685,5.69568835 C628.24234,7.12033924 630.660149,11.5723733 629.854213,24.3942313 C629.585567,29.9147535 629.182599,34.5448689 628.913954,34.9010317 C628.779631,35.079113 628.645308,35.7914385 628.376663,36.6818453 C626.630467,45.5859134 625.690208,47.9009711 622.869431,51.4625983 C620.720267,54.1338187 618.033813,55.3803883 614.407099,55.3803883 C609.168512,55.3803883 609.168512,55.3803883 607.690962,64.4625377 C606.885026,69.4488158 599.362953,117.886946 598.825662,118.777353 C598.422694,119.845841 600.034567,120.736248 602.452376,121.092411 C605.676121,121.448573 609.987412,122.601039 612.154666,127.244987 C617.741224,139.215752 610.243094,155.818276 607.55664,161.160717 C606.701481,164.056205 604.679037,167.343384 601,168 C596.306973,168.837588 589.6671,166.546295 587.40823,166.146995 Z" id="Shape"></path>
                        <path d="M392.529748,160.23346 C389.726299,155.928503 382.917922,115.390158 381.449448,93.8653725 C381.182453,89.919162 380.114472,82.0267408 379.179989,76.2867982 C377.311023,64.8069128 378.645999,65.5244057 365.830231,69.1118698 C361.291313,70.5468555 357.286385,63.9100468 355.417419,51.7126687 C353.14796,37.362812 353.548452,30.9053765 357.01939,27.856032 C359.555844,25.7035535 371.437129,20.8604769 379.71398,18.5286252 C381.048956,18.1698787 383.184917,17.6317591 384.386395,17.0936395 C385.587874,16.5555199 388.124328,15.838027 389.993294,15.2999074 C391.86226,14.941161 399.204628,12.7886825 406.546995,10.8155772 C413.755865,8.84247193 420.163749,7.58685947 420.831237,8.12497909 C424.969662,11.53307 429.375082,30.9053765 428.97459,42.9233815 C428.574097,50.8158026 426.705131,53.3270275 420.030251,54.7620132 C417.093304,55.3001328 414.156357,56.1969989 413.622367,56.7351185 C411.886898,58.1701041 413.622367,73.7755732 422.166213,130.278134 C425.236657,150.72668 424.702667,153.955397 417.89429,158.798474 C415.624831,160.412833 409.483942,162.027192 404.144038,162.565311 C396.000685,163.462177 394.398714,163.103431 392.529748,160.23346 Z" id="Shape"></path>
                        <path d="M448.545396,154.393023 C444.23326,153.681529 440.060225,152.614288 439.225618,151.902794 C437.834607,150.835553 437.278202,134.115443 437.278202,101.564589 C437.278202,99.2522337 437.417303,92.4930401 437.417303,86.4453406 C437.417303,80.2197675 437.278202,60.8315544 437.139101,43.3999498 L437,11.3827171 L440.755731,7.82524678 C443.815957,4.97927054 447.015283,4.08990296 458.282476,3.73415593 C477.061132,3.02266187 477.200233,3.20053538 476.922031,32.7275389 L476.643829,54.7838548 L483.459785,54.7838548 L490.414843,54.7838548 L490.553944,48.2025348 C490.553944,44.4671909 490.553944,34.6841476 490.414843,26.3240924 C490.275742,12.6278317 490.553944,10.8490965 493.475068,7.46949975 C498.065406,2.13329429 517.400466,-0.89055547 527.41575,2.31116781 C532.701593,3.91202944 533.397099,10.4933495 532.840694,56.56259 C532.562492,80.5755146 532.28429,110.458265 532.28429,122.909411 C532.145189,135.360557 531.588784,147.100209 530.754177,149.056818 C528.66766,153.859403 520.321591,156.349632 507.385183,155.816012 C491.944955,155.104517 490.275742,152.970035 490.553944,135.00481 L490.553944,113.837862 L490.414843,106.189301 L483.877089,106.722921 L477.478436,107.256542 L477.200233,127.000502 C477.061132,137.850786 476.365626,147.811703 475.809222,149.056818 C474.140008,152.436415 465.93304,156.171759 460.925398,155.993885 C458.421578,155.816012 452.857531,155.104517 448.545396,154.393023 Z" id="Shape"></path>
                    </g>
                </g>
                <path d="M838.711423,254.179703 C835.336413,257.62122 833.46155,256.82373 821.467944,256.82373 C809.474339,256.82373 804.609926,256.92502 802.730785,254.431316 C800.851644,251.937612 776.39377,116.437305 781.245763,110.206017 C786.097755,103.97473 800.880181,102.626562 816.228642,102.626562 C831.577103,102.626562 845.279606,100.46831 848.13242,104.254122 C850.985234,108.039934 842.086433,250.738187 838.711423,254.179703 Z M797.195303,269.276474 C801.064757,264.72334 804.953288,267.515184 820.469491,267.515184 C835.985695,267.515184 840.514344,264.739388 843.74368,269.024861 C846.973016,273.310334 846.482096,302.035077 843.74368,305.257112 C841.005264,308.479147 835.985695,307.77324 820.469491,307.77324 C804.953288,307.77324 799.89027,309.839906 797.195303,306.263563 C794.500335,302.687221 793.325848,273.829608 797.195303,269.276474 Z" id="!" fill="#FFFFFF" fill-rule="nonzero" transform="translate(814.648962, 205.190630) rotate(40.000000) translate(-814.648962, -205.190630) "></path>
            </g>
            <path d="M533.173714,1125.57139 C535.26382,1125.57139 536.577581,1129.86448 537.115036,1138.45079 L535.771404,1139.70295 L534.517347,1139.70295 L529.321967,1135.85702 L508.809176,1158.93262 L510.063233,1160.09534 L510.063233,1162.68911 L507.465544,1166.53504 L529.321967,1187.10631 L530.576024,1187.10631 L530.576024,1183.17093 L533.173714,1183.17093 L537.115036,1188.35847 C536.219277,1195.15597 534.905516,1198.55466 533.173714,1198.55466 C523.200924,1192.89008 513.825449,1184.36353 505.047005,1172.97474 C501.583402,1172.97474 499.851626,1170.8282 499.851626,1166.53504 L495.999879,1166.53504 C495.999879,1161.88412 499.015558,1158.48542 505.047005,1156.33885 C515.019795,1141.90908 524.39527,1131.65336 533.173714,1125.57139 Z M597.729136,1110.22298 L601.675472,1112.68985 L601.84431,1120.17006 L589.899795,1145.78516 C586.825452,1152.3781 586.339814,1157.94119 588.442864,1162.47459 C587.787676,1163.87965 586.07999,1163.93861 583.319755,1162.65149 L580.86581,1165.1586 L569.523084,1192.23855 L565.213987,1201.47944 L563.705019,1201.96003 L563.213631,1203.01382 L563.777621,1204.55974 L561.441768,1208.15499 C562.848947,1208.81117 562.521042,1210.04541 556.567594,1207.26927 C558.846566,1201.98156 560.666439,1197.8786 562.027213,1194.96041 C568.075099,1181.99068 572.16122,1171.4617 574.285698,1163.37317 L575.751282,1162.77366 L576.175653,1159.32014 C573.415418,1158.03303 572.36291,1156.68696 573.018098,1155.2819 C573.723684,1153.76877 575.907294,1153.53699 579.568991,1154.58655 L590.984319,1130.1063 C594.814647,1121.89214 595.728535,1117.31823 593.726012,1116.38444 C592.842549,1111.32215 594.176924,1109.26833 597.729136,1110.22298 Z M652.736469,1127.73531 L684.8045,1161.18597 C688.268103,1161.18597 689.999879,1163.69028 689.999879,1168.69896 C686.536275,1168.69896 684.8045,1170.42812 684.8045,1173.88649 C681.460331,1173.88649 676.32472,1179.01435 669.397513,1189.27022 L652.736469,1200.71858 C650.168625,1200.24156 648.884722,1196.84287 648.884722,1190.52239 L648.884722,1189.27022 L652.736469,1185.33485 C654.46827,1185.33485 655.334158,1186.64663 655.334158,1189.27022 L656.677791,1189.27022 L677.190582,1168.69896 L675.846949,1162.25926 L677.190582,1161.18597 L655.334158,1138.02094 L654.080101,1138.02094 C654.080101,1140.64453 653.214213,1141.95631 651.482411,1141.95631 C649.75061,1141.95631 648.884722,1140.64453 648.884722,1138.02094 C649.481895,1131.16382 650.765798,1127.73531 652.736469,1127.73531 Z" id="&lt;-/i&gt;" fill="#000000" fill-rule="nonzero" transform="translate(592.999879, 1159.499139) rotate(-8.000000) translate(-592.999879, -1159.499139) "></path>
            <g id="Shape" transform="translate(430.500000, 295.500000) rotate(2.000000) translate(-430.500000, -295.500000) translate(10.000000, 15.000000)" fill="#650A0B" fill-rule="nonzero">
                <path d="M60.2010198,559.292214 C55.2529908,556.983134 49.5902465,554.509119 47.3361443,553.739426 C45.9616918,553.299601 43.2127868,552.145061 41.2335752,551.265412 C39.2543636,550.330784 36.0656338,549.011309 34.0864222,548.241616 C32.1072106,547.471923 29.7981304,546.537295 28.8635026,546.152448 C21.7163496,542.90874 19.187357,541.864156 17.0432111,541.094463 C15.6687586,540.654638 11.9852259,539.060273 8.79649604,537.630843 C5.60776623,536.201412 2.36405831,534.881938 1.53938681,534.662025 C-0.384846702,534.2222 -0.384846702,533.562463 1.15454011,523.061646 C1.75929921,518.828332 2.47401451,513.660391 2.74890501,511.626201 C2.96881742,509.537033 3.35366412,507.722756 3.51859842,507.502844 C4.01340132,507.063019 32.4370792,503.599399 36.0656338,503.54442 C37.6050206,503.54442 46.1266261,502.664771 54.9781003,501.565209 C63.8295744,500.520625 71.4165523,499.750932 71.801399,499.915866 C72.7360267,500.245734 72.7910048,504.094201 72.0213114,510.031836 C70.701837,520.092829 70.3169903,520.587632 61.5204942,521.687194 L54.7032098,522.511865 L54.0434726,527.734785 C52.8339544,536.696215 52.6690201,536.25639 59.3763483,539.005295 C63.4447277,540.654638 65.3689612,541.7542 65.808786,542.63385 C67.0732823,545.052886 66.4135451,552.694842 64.5442897,557.862784 C63.609662,560.391776 62.9499248,560.611689 60.2010198,559.292214 Z M40.9586847,523.391515 C40.8487285,523.281558 36.725371,523.556449 31.8323201,523.941296 L22.9808459,524.710989 L27.5440282,526.690201 C30.0730209,527.789763 34.0314441,529.384128 36.2855462,530.318755 L40.4089037,531.968098 L40.7937504,527.789763 C40.9586847,525.480682 41.0136628,523.501471 40.9586847,523.391515 Z"></path>
                <path d="M56.6274433,470.722495 C49.6452246,469.512976 38.374714,464.619925 33.3167288,460.606524 C28.8635026,457.087926 24.685167,451.040335 23.0908021,445.872393 C21.5514153,441.03432 21.6063934,433.777211 23.1457802,429.159051 C24.5752108,424.925737 28.6435902,417.338759 30.3479114,415.799372 C34.6362032,411.840949 38.924495,412.665621 44.1474145,418.328365 C48.0508596,422.506701 48.270772,424.375956 45.3569327,427.784598 C41.4534876,432.347781 41.0686409,436.855985 44.2023926,441.364189 C46.9512976,445.267634 49.315356,446.587109 57.1772243,448.676276 C62.0702752,449.940773 64.3793554,449.610904 68.0628881,446.916977 C71.3615742,444.552919 72.6810486,441.63908 72.7910048,436.306204 C72.8459829,432.622671 73.0658953,431.798 73.9455449,431.193241 C75.4849317,430.203635 82.8519971,429.323985 85.7658364,429.818788 C91.2636465,430.698438 92.0333399,432.182846 91.7034713,440.979342 C91.4835589,446.367196 91.2086684,447.796627 89.7242597,451.645094 C86.2606393,460.331634 82.1922599,464.839838 74.4953259,468.413414 C72.6810486,469.293064 69.8771655,470.227692 68.2278224,470.55756 C65.3139831,471.107341 59.3213702,471.162319 56.6274433,470.722495 Z"></path>
                <path d="M82.7420409,420.857358 C75.9797346,419.482905 68.8325816,414.974701 64.4893116,409.366935 C60.9707132,404.803752 60.2010198,402.439694 60.2010198,396.337125 C60.2559979,392.213767 60.4759103,391.224162 62.0152971,387.870497 C63.6646401,384.406877 65.259005,382.097797 68.3377786,378.799111 C70.2070341,376.819899 75.0451069,374.78571 79.3883768,374.180951 C88.8995882,372.861476 102.094332,379.074001 107.702098,387.650585 C110.615938,392.103811 111.220697,394.412891 110.945806,400.185592 C110.725894,404.089037 110.396025,405.408511 108.911617,408.432307 C106.657515,412.775577 103.468785,416.679022 100.444989,418.658234 C96.2666536,421.407139 89.6692816,422.23181 82.7420409,420.857358 Z M91.9233837,402.54965 C94.6722887,400.185592 93.1329019,396.612015 88.239851,393.918089 C82.5771066,390.729359 80.048114,390.784337 78.3437929,394.138001 C77.5740995,395.677388 77.5740995,395.952278 78.6186834,397.93149 C79.4433549,399.580833 80.4329607,400.460482 82.8519971,401.615023 C87.9649604,404.034059 89.889194,404.253971 91.9233837,402.54965 Z"></path>
                <path d="M118.752697,378.634177 C117.433222,377.644571 115.17912,376.105184 113.749689,375.170556 C110.83585,373.301301 99.3454272,365.494411 97.4211937,364.119958 C96.2666536,363.240309 96.1566974,363.295287 95.0571354,364.669739 C93.6826829,366.429038 91.4285808,366.538995 88.1848729,364.999608 C81.0377198,361.535987 78.5637053,354.333856 83.2368438,350.650324 C83.896581,350.155521 84.996143,349.165915 85.7658364,348.506178 C86.4805517,347.84644 88.1848729,347.076747 89.4493692,346.6919 L91.8134275,346.087141 L91.8684056,342.458587 C91.8684056,337.895404 93.0229457,335.146499 96.9263908,330.088514 C99.4553834,326.789828 100.444989,325.910178 102.589135,325.195463 C107.592142,323.491142 113.364843,324.370792 118.752697,327.6145 C120.40204,328.604105 122.216317,329.813624 122.766098,330.308426 C123.370857,330.803229 124.855266,331.792835 126.17474,332.562529 C127.439236,333.332222 131.837484,336.191083 135.850886,338.88501 C139.864287,341.633915 143.602798,344.052952 144.152579,344.38282 C144.70236,344.657711 145.142185,345.482382 145.142185,346.197097 C145.142185,348.066353 141.458652,354.388834 138.599791,357.467608 L136.180754,360.051579 L133.651762,358.56717 C132.277309,357.797477 129.308492,355.873243 127.05439,354.333856 C124.855266,352.79447 122.601164,351.310061 122.161339,350.980192 C121.666536,350.705302 118.972609,348.891024 116.168726,347.021769 C109.296463,342.403609 107.042361,342.403609 106.272668,346.966791 C105.997777,348.836046 106.107734,348.946002 109.736288,351.200105 C111.825456,352.519579 114.519383,354.278878 115.728901,355.158528 C116.938419,356.038177 120.951821,358.732104 124.635353,361.151141 C128.318886,363.570177 131.507616,365.769301 131.67255,366.09917 C132.167353,366.868863 129.033601,372.696542 126.614565,375.445447 C125.405047,376.819899 124.14055,378.469242 123.755704,379.183958 C122.876054,380.833301 121.611558,380.723344 118.752697,378.634177 Z"></path>
                <path d="M148.660783,334.321828 C147.451265,333.222266 143.107995,329.703667 139.094594,326.514938 C135.026214,323.326208 131.287703,320.35739 130.792901,319.917566 C130.298098,319.477741 129.528404,318.872982 129.088579,318.543113 C128.593777,318.268223 127.439236,317.443551 126.504609,316.728836 L124.800288,315.464339 L123.810682,317.113682 C123.095967,318.433157 122.491207,318.818004 121.116755,318.818004 C119.357456,318.818004 117.708113,317.77342 113.694711,313.924953 C111.330653,311.725829 111.110741,310.571288 112.650127,308.427143 L113.749689,306.942734 L109.736288,302.70942 C105.173106,297.926325 104.128522,295.452311 104.623325,290.55926 C105.008172,286.820749 106.382624,284.126822 110.176113,279.673596 C113.309865,275.990063 118.862653,272.086618 120.896843,272.086618 C122.766098,272.086618 128.098974,280.058443 128.098974,282.862326 C128.098974,283.247173 127.604171,283.741976 126.944434,283.90691 C125.295091,284.456691 121.501602,287.975289 121.501602,289.019873 C121.501602,289.954501 123.755704,293.528077 124.360463,293.528077 C124.580375,293.528077 125.789893,292.153625 127.109368,290.504282 C130.463032,286.21599 132.002419,286.380924 137.335295,291.493888 C140.798915,294.90253 140.963849,296.222004 138.269922,299.025887 L136.290711,301.060077 L141.953455,305.458325 C145.087207,307.93234 148.220958,310.571288 148.935674,311.340982 C149.705367,312.110675 150.585017,312.770412 150.914885,312.770412 C151.244754,312.770412 153.168987,314.199843 155.203177,315.959142 C157.237367,317.663463 159.766359,319.807609 160.810943,320.632281 C161.855527,321.51193 162.735177,322.556514 162.735177,322.996339 C162.735177,325.635288 154.158593,336.410996 152.069425,336.410996 C151.464666,336.410996 149.925279,335.476368 148.660783,334.321828 Z"></path>
                <path d="M166.033863,306.17304 C162.625221,305.843172 157.897104,303.973916 156.082827,302.214617 C155.643002,301.829771 154.378506,300.840165 153.278944,300.015493 C150.694973,298.036282 146.461659,292.483493 144.647382,288.580048 C142.833105,284.676603 142.39328,277.52945 143.712754,273.021246 C145.472053,267.028633 154.268549,258.507028 159.821338,257.462444 C162.790155,256.912663 169.442505,257.517422 171.366739,258.507028 C174.2256,259.991436 178.56887,264.334706 179.833366,266.973655 C180.767994,268.952867 180.932928,270.162385 180.822972,273.680983 C180.603059,277.52945 180.383147,278.244166 178.623848,280.938092 C177.524286,282.587435 175.325162,285.33634 173.730797,287.09564 C170.707001,290.394326 170.652023,291.328953 173.455906,291.328953 C176.039877,291.328953 182.142446,283.467085 183.406943,278.4091 C183.571877,277.639406 184.06668,277.034647 184.506505,277.034647 C186.210826,277.034647 191.708636,279.508662 193.138066,280.993071 C194.622475,282.422501 194.732431,282.807348 194.347584,285.171406 C193.852782,288.744983 192.423351,291.7138 189.344577,295.837158 C182.747205,304.468719 176.644636,307.162646 166.033863,306.17304 Z M164.219586,280.223377 C166.308753,278.189187 166.528666,276.37491 164.824345,275.165392 C163.120024,273.955874 162.020462,274.06583 160.700987,275.550239 C159.601425,276.704779 159.216578,277.639406 159.381513,279.068837 C159.436491,279.728574 161.580637,281.982676 162.130418,281.982676 C162.295352,281.982676 163.22998,281.212983 164.219586,280.223377 Z"></path>
                <path d="M196.271818,267.578414 C182.692227,253.394064 183.736811,254.328692 182.362359,255.318298 C179.72341,257.187553 176.53468,255.978035 172.961103,251.744721 C168.452899,246.411845 168.562855,242.5084 173.34595,239.264692 C175.160227,238.055174 176.25979,237.725306 178.678826,237.725306 C180.328169,237.725306 182.307381,237.945218 183.022096,238.16513 C184.231614,238.659933 184.286592,238.549977 183.901745,236.955612 C182.967118,232.612342 186.320782,225.080343 190.059293,223.376021 C194.567497,221.231876 197.37138,222.82624 200.615088,229.368634 C202.979146,234.096751 203.473949,236.900634 202.044519,236.900634 C201.604694,236.900634 200.450154,237.615349 199.515526,238.440021 C198.086095,239.704517 197.811205,240.254298 198.141073,241.463816 C198.470942,242.838269 203.034124,247.896254 214.029744,259.00183 C216.668693,261.695757 218.812839,264.22475 218.812839,264.664575 C218.812839,265.929071 207.102504,277.034647 205.838007,277.034647 C205.563117,277.034647 201.274825,272.801334 196.271818,267.578414 Z"></path>
                <path d="M228.159116,245.862064 C225.465189,245.367262 219.032752,241.958619 216.558737,239.759495 C213.534941,237.065568 208.641891,230.138328 207.48735,226.89462 C206.937569,225.300255 206.662679,222.441394 206.662679,218.373014 C206.662679,212.930182 206.827613,211.885598 208.037131,209.301628 C210.016343,205.17827 215.01935,200.285219 219.36262,198.196052 C222.55135,196.656665 223.485978,196.49173 227.884226,196.49173 C234.536576,196.49173 238.275087,198.25103 241.903641,203.089102 C244.377656,206.33281 244.377656,206.387788 244.54259,211.390796 C244.707524,215.624109 244.597568,216.778649 243.607962,218.647905 C242.453422,220.902007 239.154736,224.530562 234.921423,228.214094 C232.447408,230.35824 232.612342,230.853043 235.966006,230.853043 C238.275087,230.853043 243.717919,225.575145 245.642152,221.39681 C246.466824,219.637511 247.456429,218.20808 247.896254,218.20808 C249.16075,218.20808 255.153363,221.616722 256.252925,223.046153 C256.802706,223.815846 257.297509,225.190299 257.297509,226.124926 C257.297509,230.193306 249.050794,240.474211 243.443028,243.278094 C238.549977,245.752108 232.832255,246.686736 228.159116,245.862064 Z M227.609335,218.757861 C229.808459,216.723671 229.918415,216.448781 229.313656,215.239263 C228.92881,214.524547 227.994182,213.58992 227.224488,213.205073 C225.959992,212.490358 225.74008,212.600314 224.255671,214.249657 C223.376021,215.239263 222.661306,216.393803 222.661306,216.888606 C222.661306,217.548343 224.530562,220.462182 225.190299,220.902007 C225.190299,220.956985 226.289861,219.967379 227.609335,218.757861 Z"></path>
                <path d="M266.203962,217.548343 C265.214356,216.228868 263.400078,213.86481 262.080604,212.270445 C260.816108,210.621102 259.221743,208.531934 258.562006,207.597307 C257.902268,206.607701 257.022619,205.398183 256.527816,204.90338 C255.923057,204.243643 251.634765,198.745833 249.76551,196.21684 C249.655553,196.106884 249.050794,196.271818 248.501013,196.656665 C246.191933,198.086095 244.047787,197.481336 241.408838,194.677453 C237.560371,190.71903 236.405831,185.111264 238.549977,181.537687 C239.814473,179.503497 243.937831,178.074067 248.446035,178.074067 C251.139962,178.074067 251.249918,178.019089 251.249918,176.53468 C251.249918,174.390534 254.933451,168.837746 257.902268,166.41871 C265.37929,160.371119 271.976662,159.821338 277.804341,164.769367 C281.542852,167.958096 289.184807,176.809571 289.184807,177.909133 C289.184807,178.239001 289.569654,178.84376 290.119435,179.228607 C290.614238,179.668432 293.198209,182.91214 295.837158,186.430738 C298.531085,189.949336 300.950121,192.973132 301.27999,193.193044 C301.55488,193.357979 301.829771,194.127672 301.829771,194.842387 C301.829771,195.831993 301.005099,196.821599 298.970909,198.360986 C297.376544,199.570504 295.17742,201.329803 294.132837,202.209453 C292.043669,204.02373 288.854939,205.233248 287.755377,204.573511 C287.205596,204.243643 284.511669,200.835 277.969275,192.203439 C271.976662,184.286592 268.513042,180.273191 267.578414,180.273191 C266.753743,180.273191 263.894881,183.626855 263.894881,184.616461 C263.894881,185.111264 265.214356,187.145453 266.808721,189.179643 C268.348107,191.158855 270.492253,193.852782 271.426881,195.172256 C273.845918,198.415964 276.539844,201.934562 279.398706,205.453161 C283.192195,210.126299 283.192195,209.796431 279.508662,213.040139 C277.749363,214.634503 275.660195,216.283847 274.890501,216.668693 C274.120808,217.05354 272.746355,217.93319 271.811728,218.592927 C269.392691,220.407204 268.238151,220.187292 266.203962,217.548343 Z"></path>
                <path d="M306.557887,183.18703 C302.929333,182.087468 298.146238,178.788782 295.507289,175.545074 C294.297771,174.060665 293.033274,172.521279 292.59345,172.136432 C290.724194,170.15722 288.305158,164.054651 287.590443,159.271557 C286.875727,155.148199 287.700399,149.815323 289.514676,145.966856 C291.054063,142.66817 296.05707,137.830097 300.015493,135.795908 C305.0185,133.156959 311.011113,132.992025 313.595084,135.356083 C315.73923,137.280316 317.938354,143.657776 317.608485,146.901484 C317.498529,148.385893 317.003726,149.815323 316.61888,150.090214 C316.179055,150.365104 314.034909,150.530039 311.780807,150.47506 C307.987318,150.365104 307.657449,150.47506 306.447931,151.904491 C304.413741,154.213571 304.798588,156.302739 308.152252,161.360724 C310.186442,164.38452 312.000719,165.81395 314.364777,166.308753 C316.343989,166.6936 320.412368,163.999673 322.39158,161.030856 C323.161273,159.821338 324.095901,158.831732 324.42577,158.831732 C326.514938,158.831732 333.882003,165.703994 334.54174,168.342943 C334.981565,169.992286 333.991959,171.971498 331.188076,175.270184 C328.76904,178.074067 321.896777,182.747205 318.982938,183.571877 C316.069099,184.34157 309.691639,184.176636 306.557887,183.18703 Z"></path>
                <path d="M342.733477,160.206184 C340.589331,159.821338 337.895404,158.88671 336.685886,158.117016 C333.772047,156.247761 328.384193,150.914885 327.88939,149.375498 C327.669478,148.715761 327.064719,147.506243 326.459959,146.73655 C324.370792,143.82271 322.721449,137.940054 322.776427,132.992025 C322.776427,123.205923 327.504543,116.388638 337.400601,111.99039 C344.657711,108.746682 352.739491,110.176113 357.852455,115.618945 C360.216513,118.147938 362.305681,123.480813 362.305681,126.999412 C362.305681,130.188141 360.986206,134.641368 360.051579,134.641368 C359.776688,134.641368 359.556776,134.971236 359.556776,135.411061 C359.556776,136.510623 355.983199,139.534419 351.420017,142.283324 C347.57155,144.592404 347.461594,144.70236 348.341243,145.691966 C349.715696,147.176374 351.255083,146.956462 354.333856,144.867294 C357.522586,142.723148 359.666732,140.743937 362.085768,137.665163 L363.845068,135.466039 L365.934235,136.565601 C367.088776,137.17036 368.958031,138.599791 370.112571,139.754331 C373.02641,142.613192 373.02641,145.087207 370.057593,148.770739 C367.308688,152.179382 365.054586,154.268549 360.931228,157.072433 C358.347258,158.831732 356.697915,159.546447 353.234294,160.206184 C348.121331,161.140812 347.901419,161.140812 342.733477,160.206184 Z M343.888017,133.266915 C347.351638,131.287703 347.626528,129.583382 344.877623,127.769105 C343.778061,126.999412 343.22828,126.944434 341.963784,127.494215 C339.76466,128.428842 339.049944,130.298098 340.094528,132.717134 C340.534353,133.761718 341.029156,134.641368 341.249068,134.641368 C341.414003,134.641368 342.623521,134.036608 343.888017,133.266915 Z"></path>
                <path d="M388.255344,116.388638 C368.958031,77.299209 367.748513,74.7152383 368.078381,73.6706544 C368.243316,73.1208734 368.903053,72.4061581 369.617768,72.0762895 C388.420278,62.7849905 400.24057,57.1222462 400.900307,57.1222462 C402.219782,57.1222462 403.759168,59.2663921 406.508073,64.7642021 C408.157416,68.1728443 409.037066,70.5369027 408.92711,71.5814866 C408.762176,73.2308296 408.212395,73.5606982 397.381709,78.8935739 L393.203373,80.9827417 L395.347519,85.3260116 C396.557037,87.6900699 397.711577,89.5593254 397.93149,89.4493692 C398.151402,89.339413 400.515461,88.1848729 403.154409,86.8653984 C406.947898,84.9411649 408.212395,84.5013401 408.92711,84.9411649 C410.521475,85.9307707 414.644832,93.8476172 414.919723,96.3766098 L415.194613,98.7406681 L411.566059,100.71988 C409.531869,101.87442 407.607635,102.754069 407.222789,102.754069 C406.837942,102.754069 406.068249,103.083938 405.518468,103.468785 C404.638818,104.128522 404.913709,104.953193 409.531869,114.354449 C412.280774,119.962215 414.534876,124.965222 414.534876,125.405047 C414.534876,126.17474 412.885533,128.043996 412.170818,128.043996 C412.005884,128.043996 410.796365,128.758711 409.476891,129.63836 C406.288161,131.782506 400.625417,134.091587 398.646205,134.091587 C396.996862,134.091587 396.831928,133.761718 388.255344,116.388638 Z"></path>
                <path d="M439.220043,110.286069 C434.491927,108.691704 433.282408,107.812055 429.928744,103.798653 C424.760803,97.586128 422.23181,90.6588874 422.23181,82.6870628 C422.23181,77.1342747 423.441328,72.9559391 425.915343,69.7122312 C428.279401,66.5784794 430.423547,64.9841145 435.53651,62.6200562 C442.188861,59.5412826 450.765444,59.8711512 455.493561,63.4997058 C456.483167,64.2144211 457.472772,64.8191802 457.802641,64.8191802 C458.517356,64.8191802 460.276656,66.7434137 462.640714,70.3169903 C467.643721,77.6840557 469.732889,86.2056612 468.468392,93.9025953 C468.083546,96.2116755 467.313852,98.9605805 466.764071,100.060143 C465.169706,103.193894 459.56194,107.922011 455.933386,109.241485 C448.676276,111.880434 444.662875,112.155325 439.220043,110.286069 Z M449.830816,92.3082304 C451.315225,90.7688436 451.48016,90.3839969 451.150291,88.4047853 C450.930379,87.195267 450.105707,84.6112963 449.226057,82.6870628 C446.807021,77.4091652 443.563313,76.1446689 440.924364,79.498333 C439.494934,81.3126103 439.549912,83.2368438 441.03432,87.195267 C442.353795,90.7688436 445.157678,93.9575734 446.971955,93.9575734 C447.631692,93.9575734 448.896189,93.18788 449.830816,92.3082304 Z"></path>
                <path d="M483.862261,95.9917631 C483.58737,95.2220697 482.70772,92.4181866 481.883049,89.7792378 C481.113356,87.0853108 479.189122,80.8727855 477.649735,76.0347127 L474.790874,67.1282604 L472.756684,67.4031509 C469.952801,67.7879976 468.303458,65.9737203 467.09394,61.2456037 C465.9394,56.5174871 465.994378,54.0434726 467.36883,51.8443486 C469.677911,48.1058377 476.605151,47.9409034 480.618553,51.5694581 L482.322874,53.1088449 L483.917239,49.9201151 C486.226319,45.2469765 490.624567,42.3331372 495.46264,42.2781591 C498.321501,42.2781591 499.146172,42.7179839 500.025822,44.8621298 C501.015428,47.17121 501.620187,55.7477937 500.96045,57.9469177 C500.520625,59.4863045 500.300713,59.5962607 497.991632,59.5962607 C492.713735,59.6512388 492.5488,61.5754723 496.672158,74.4403478 C499.970844,84.9411649 501.950056,91.3736027 501.950056,91.9233837 C501.950056,92.9129895 491.779107,96.3216317 486.941034,96.9813689 C484.576976,97.3112375 484.302085,97.2012813 483.862261,95.9917631 Z"></path>
                <path d="M810.267242,85.7108583 C804.274629,83.9515591 800.920965,82.1922599 798.44695,79.498333 C795.258221,76.0896908 795.203242,73.7256325 798.17206,68.6676473 C800.865987,64.0494868 802.130483,63.7745963 805.868994,67.0183042 C807.298425,68.2828005 809.387592,69.8221874 810.487154,70.3719684 C812.906191,71.5814866 815.875008,71.7464209 815.875008,70.6468589 C815.875008,69.9321436 811.146892,65.3689612 808.617899,63.609662 C807.903184,63.1148591 806.473753,61.0806694 805.484147,59.0464797 C803.779826,55.6378375 803.66987,55.0880565 803.889782,50.9097209 C804.109695,46.2365823 805.429169,42.3331372 807.463359,40.5188599 C808.01314,40.024057 809.827417,38.924495 811.47676,38.0448454 C814.170687,36.6703929 815.050337,36.5054586 819.723475,36.5604367 C824.121723,36.5604367 825.771066,36.8353272 830.27927,38.374714 C836.051971,40.2989475 839.735504,42.6080277 840.725109,44.8071517 C841.549781,46.5664509 840.395241,49.0404655 837.261489,52.4491077 C834.677518,55.2529908 833.138132,55.5828594 831.323854,53.6586259 C829.894424,52.064261 824.396614,50.5798523 823.461986,51.51448 C822.637315,52.3391515 824.451592,54.4832974 828.410015,57.4521148 C831.653723,59.8711512 835.172321,64.0494868 836.161927,66.6334575 C838.745898,73.3957639 833.577956,83.1268876 825.990979,85.8757926 C822.362424,87.1402889 815.160293,87.0853108 810.267242,85.7108583 Z"></path>
                <path d="M538.730405,81.8623913 C534.991894,81.2026541 532.352945,79.7732235 531.033471,77.6840557 C529.439106,75.100085 529.439106,69.7122312 531.088449,65.3689612 C532.352945,62.0152971 532.957704,61.5754723 535.046872,62.6750343 C536.751193,63.5546839 540.489704,63.4447277 542.688828,62.4001438 C544.777996,61.410538 547.032098,58.111852 547.032098,56.0776623 C547.032098,55.4179251 546.427339,51.8443486 545.712623,48.1608158 C544.997908,44.4772831 543.953324,38.8695169 543.403543,35.7907433 L542.413937,30.0730209 L540.764594,30.4578676 C536.586259,31.3375172 533.507485,31.3924953 532.902726,30.67778 C532.023076,29.578218 530.538668,23.585605 530.153821,19.5172256 C529.878931,16.438452 529.988887,15.888671 531.033471,14.8440871 C531.63823,14.239328 532.847748,13.689547 533.727398,13.689547 C534.552069,13.689547 539.280186,12.8098974 544.283193,11.7653135 C549.231222,10.6657515 554.289207,9.84107995 555.553703,9.95103615 C557.477937,10.1159705 557.862784,10.390861 558.687455,12.040204 C559.182258,13.0847879 560.501732,18.5276198 561.601294,24.135386 C562.700856,29.7431523 564.735046,39.8591227 566.109499,46.6764071 C569.683075,64.0494868 569.518141,67.0183042 564.570112,73.3957639 C560.116886,79.2234425 547.416944,83.3468 538.730405,81.8623913 Z"></path>
                <path d="M771.342747,77.9589462 C765.789959,77.0243185 762.546251,76.3096032 762.27136,75.8148003 C762.106426,75.5399098 763.205988,68.502713 764.745375,60.0910636 C767.604236,44.2573707 767.604236,43.9824802 765.1852,43.9275021 C761.336733,43.9275021 761.886514,32.4920573 765.899915,28.2037654 C766.889521,27.1042034 767.714192,26.884291 770.078251,26.884291 C771.727594,26.884291 773.761783,27.2691377 774.586455,27.6539844 C776.620645,28.6985683 779.479506,32.0522325 779.919331,33.8115317 L780.249199,35.1859842 L781.458717,34.0864222 C782.063476,33.4816631 784.042688,32.327123 785.856965,31.5024515 C788.550892,30.2929333 789.595476,30.0730209 792.289403,30.3479114 C794.048702,30.5128457 796.357783,31.1176048 797.29241,31.6673858 C799.051709,32.7119697 799.106688,32.8219259 799.106688,36.5604367 C799.106688,40.573838 797.622279,44.5322612 794.818396,47.9958815 L793.498921,49.6452246 L791.464732,48.4357063 C788.276002,46.5664509 787.011506,46.7863633 785.911944,49.5902465 C785.417141,50.8547428 784.042688,57.3421586 782.83317,63.9945087 C781.67863,70.6468589 780.579068,76.6394718 780.414133,77.3541871 C780.139243,78.398771 779.809374,78.5637053 777.225404,78.5087272 C775.686017,78.4537491 772.99209,78.2338367 771.342747,77.9589462 Z"></path>
                <path d="M587.935804,73.3957639 C584.032359,72.2412238 581.448389,70.6468589 579.799046,68.1178662 C578.094724,65.5888736 576.170491,59.9811074 576.170491,57.6720272 C576.170491,56.7923776 575.455776,49.8101589 574.521148,42.1682029 C573.641498,34.5812251 572.871805,27.9288749 572.871805,27.434072 C572.871805,26.1145976 576.720272,25.1799699 583.977381,24.8501013 L589.860038,24.5202327 L590.134928,26.3894881 C590.354841,27.434072 591.179512,34.2513565 592.059162,41.5634438 C592.938812,48.8755311 593.983395,55.362947 594.313264,55.9677061 C595.082957,57.3971367 596.842257,57.4521148 599.151337,56.0226842 C600.085965,55.4179251 600.910636,54.8681441 600.910636,54.7581879 C600.910636,54.6482317 600.195921,48.3257501 599.261293,40.7387723 C597.117147,22.8708897 597.117147,23.7505393 599.701118,23.0908021 C602.669935,22.2661306 612.291103,21.2765248 613.445643,21.6613715 C614.270314,21.8812839 614.600183,22.9808459 615.094986,27.5990063 C615.479833,30.67778 616.304504,37.7149768 616.964241,43.2677649 L618.118781,53.2737792 L620.207949,53.2737792 C623.011832,53.2737792 624.056416,54.8681441 624.386285,59.761195 C624.716153,64.1044649 623.94646,67.5131071 622.077205,69.602275 C620.867686,71.0317056 620.537818,71.1416618 616.579395,71.0866837 C612.785906,71.0317056 612.181147,70.8667713 610.311891,69.3273845 C608.33268,67.7330195 608.222723,67.6780414 607.562986,68.7776035 C607.17814,69.3823626 605.14395,70.701837 602.944826,71.7464209 C598.161731,74.000523 592.389031,74.6602602 587.935804,73.3957639 Z"></path>
                <path d="M728.184938,72.7360267 C721.257698,71.0317056 718.838661,69.7672093 715.759888,66.1936327 C711.031771,60.7508008 710.097143,57.6170491 710.48199,47.8859253 C710.75688,39.1444074 711.471596,36.725371 715.210107,31.1176048 C721.147741,22.3211087 732.968033,19.737138 743.743741,24.7951232 C747.207361,26.4444662 749.736354,28.6985683 752.265346,32.4370792 C754.684383,36.0106557 755.069229,38.1548016 755.069229,46.9512976 C755.014251,54.8681441 754.959273,55.362947 753.364908,59.1564359 C751.550631,63.4447277 746.272733,70.0420998 744.238544,70.5918808 C743.578806,70.8117932 742.149376,71.3615742 741.104792,71.8563771 C739.180558,72.7360267 730.548997,73.2858077 728.184938,72.7360267 Z M734.232529,55.6928156 C735.771916,55.0880565 737.421259,51.0196771 737.641171,47.2261881 C737.97104,42.3331372 736.706544,39.8591227 733.682748,39.6392103 C730.603975,39.3643198 729.2845,40.9037066 728.459829,45.7417794 C727.250311,52.9439106 729.779303,57.3971367 734.232529,55.6928156 Z"></path>
                <path d="M689.810224,69.2724064 C686.896385,69.052494 684.257436,68.6126692 684.037524,68.3377786 C683.762633,68.0628881 683.762633,63.4997058 683.982546,58.2218082 C684.257436,52.9439106 684.587305,42.4980715 684.807217,35.0210499 C685.02713,25.7297509 685.356998,21.1665686 685.796823,20.5068314 C686.401582,19.6821599 687.391188,19.6271818 695.088122,20.0120285 L703.719684,20.3968752 L703.719684,29.0284369 C703.719684,38.0998235 702.290253,68.6126692 701.850428,69.052494 C701.355625,69.5472969 695.1431,69.6572531 689.810224,69.2724064 Z"></path>
                <path d="M634.612212,68.8875597 C634.062431,68.6676473 633.897496,64.9291364 633.897496,52.9439106 L633.897496,37.3301301 L631.698372,37.3301301 C628.839511,37.3301301 627.684971,35.625809 627.41008,31.0626267 C627.13519,26.7193567 628.069818,23.2557364 630.104007,21.2215467 C631.698372,19.6271818 631.863307,19.6271818 635.876708,19.8470942 C639.450284,20.0670066 640.384912,20.3968752 642.584036,21.936262 C644.178401,23.035824 645.332941,23.5306269 645.772766,23.2557364 C649.621233,20.3418971 651.325554,19.8470942 658.252795,19.3522913 C662.980911,19.0224227 668.478721,20.1769628 670.402955,21.8812839 C671.887364,23.1457802 674.361378,28.3686997 675.021115,31.5574296 C675.350984,33.0968164 675.790809,41.9482905 676.010721,51.1846114 L676.395568,68.0628881 L674.801203,68.502713 C672.931947,68.9975159 660.012094,69.1074721 659.462313,68.6126692 C659.297379,68.3927567 658.96751,61.410538 658.747598,53.0538668 C658.362751,38.5946264 658.307773,37.8799111 657.208211,36.725371 C656.273583,35.8457214 655.613846,35.625809 654.34935,35.9556776 C651.215598,36.6154148 651.215598,36.6703929 651.215598,53.4936916 L651.215598,68.9425378 L643.243773,69.052494 C638.845525,69.1074721 634.94208,68.9975159 634.612212,68.8875597 Z"></path>
                <path d="M689.315421,15.9436491 C687.6111,15.7787148 686.071713,15.4488462 685.906779,15.2839119 C685.686867,15.1189776 685.741845,11.7103354 685.906779,7.75191214 L686.291626,0.494802903 L688.160881,0.164934301 C690.414983,-0.274890501 703.279859,0.439824802 704.214487,0.989605805 C704.709289,1.31947441 704.764268,3.18872982 704.434399,8.79649604 L703.994574,16.1635615 L698.221874,16.2185396 C695.033144,16.2735177 691.019742,16.1635615 689.315421,15.9436491 Z"></path>
            </g>
        </g>
    </g>
</svg>