<?xml version="1.0" standalone="no"?>
<!DOCTYPE svg PUBLIC "-//W3C//DTD SVG 20010904//EN"
 "http://www.w3.org/TR/2001/REC-SVG-20010904/DTD/svg10.dtd">
<svg version="1.0" xmlns="http://www.w3.org/2000/svg"
 width="1345.000000pt" height="1345.000000pt" viewBox="0 0 1345.000000 1345.000000"
 preserveAspectRatio="xMidYMid meet">
<metadata>
Created by potrace 1.11, written by Peter Selinger 2001-2013
</metadata>
<g transform="translate(0.000000,1345.000000) scale(0.100000,-0.100000)"
fill="#000000" stroke="none">
<path d="M9492 10146 c-56 -90 -104 -170 -107 -177 -4 -10 15 -23 62 -43 195
-84 532 -265 728 -392 48 -30 83 -50 79 -42 -12 19 -654 818 -658 818 -2 0
-49 -74 -104 -164z"/>
<path d="M6655 10289 c-1074 -35 -2108 -327 -2895 -817 -903 -563 -1590 -1204
-2075 -1937 -403 -608 -675 -1303 -800 -2038 -27 -162 -65 -479 -65 -548 l0
-45 840 -83 c461 -46 845 -81 853 -78 9 3 19 35 26 84 19 115 77 338 122 471
301 872 953 1582 1964 2137 950 522 1863 599 2820 238 299 -112 716 -340 997
-544 l67 -48 1021 1026 1022 1027 -24 18 c-67 54 -314 227 -416 291 -252 160
-548 315 -802 422 -180 76 -508 184 -705 234 -575 144 -1275 212 -1950 190z
m437 -504 c180 -15 307 -35 360 -56 46 -18 61 -68 55 -178 -10 -196 -52 -285
-142 -302 -27 -5 -53 -13 -57 -17 -6 -6 -108 -600 -108 -629 0 -1 20 -8 45
-14 111 -28 137 -166 65 -346 -39 -97 -62 -123 -109 -123 -40 0 -173 26 -326
64 -56 14 -131 30 -168 36 -110 20 -128 62 -107 245 18 159 66 239 133 221 31
-8 46 4 56 43 11 38 55 385 67 511 l6 75 -38 14 c-82 29 -88 50 -75 244 10
131 27 202 54 219 18 11 85 10 289 -7z m-621 -5 c62 -17 63 -23 67 -430 1
-201 -1 -517 -5 -704 l-9 -338 -27 -23 c-36 -32 -125 -49 -223 -42 -153 9
-158 18 -162 287 l-4 206 -57 -4 c-31 -2 -58 -6 -60 -8 -3 -3 -7 -97 -11 -210
l-6 -207 -28 -22 c-32 -25 -89 -45 -132 -45 -16 0 -68 7 -117 16 -69 13 -90
21 -100 38 -9 16 -13 192 -15 704 l-4 684 28 29 c15 16 44 34 64 39 54 15 241
15 267 1 35 -18 43 -72 43 -293 l0 -208 64 0 64 0 4 218 c3 244 6 255 76 286
78 34 210 46 283 26z m-1037 -82 c26 -41 56 -171 63 -268 8 -130 -4 -152 -90
-178 l-62 -18 2 -84 c2 -46 25 -239 53 -430 27 -190 50 -366 50 -391 0 -83
-49 -128 -161 -149 -81 -16 -124 -13 -144 10 -33 37 -87 327 -120 650 -9 85
-22 184 -29 220 l-12 65 -44 -4 c-114 -9 -112 -10 -138 37 -44 79 -67 285 -38
341 24 46 197 111 516 195 119 31 136 32 154 4z m2810 -33 c62 -11 92 -24 160
-68 103 -68 152 -116 182 -181 43 -93 25 -180 -68 -323 -59 -92 -115 -153
-140 -153 -10 0 -43 20 -73 44 -93 77 -182 119 -191 91 -2 -5 34 -61 81 -123
105 -141 145 -212 186 -332 70 -208 33 -398 -122 -625 -66 -97 -129 -160 -183
-180 -35 -14 -68 -16 -158 -14 -108 4 -118 6 -191 42 -85 42 -170 115 -247
212 -93 117 -110 196 -69 318 31 93 99 215 142 254 45 40 48 39 110 -47 75
-104 207 -204 207 -156 0 7 -36 64 -81 127 -130 184 -160 256 -174 415 -13
150 38 369 110 479 45 67 108 139 147 167 90 63 221 82 372 53z m-3759 -299
c53 -53 100 -181 108 -294 6 -83 1 -99 -37 -112 -55 -18 -106 -67 -106 -102 0
-33 1 -38 149 -495 56 -171 101 -325 101 -341 0 -16 -9 -41 -20 -54 -40 -51
-257 -145 -281 -121 -21 21 -279 804 -279 845 0 32 -26 31 -88 -3 -58 -32 -60
-33 -86 -16 -60 40 -109 159 -122 297 -6 60 -4 68 17 93 19 21 255 154 538
304 56 29 76 29 106 -1z m4922 -71 c52 -22 139 -84 288 -203 137 -110 164
-137 165 -163 0 -33 -382 -451 -775 -846 -283 -285 -264 -276 -372 -186 -101
84 -163 145 -163 162 0 43 439 801 633 1091 90 135 114 160 153 160 19 0 51
-7 71 -15z m-5765 -417 c46 -14 119 -89 184 -189 55 -84 82 -146 141 -321 l48
-143 0 -211 0 -210 -39 -78 c-45 -92 -136 -190 -210 -225 -68 -33 -160 -39
-218 -14 -98 44 -185 180 -261 411 -62 186 -77 255 -84 386 -19 358 207 664
439 594z m-716 -613 c49 -52 76 -133 82 -243 5 -105 1 -113 -73 -157 -23 -13
-56 -40 -74 -60 -27 -31 -31 -43 -31 -90 0 -145 138 -321 227 -289 15 5 29 17
31 27 2 10 -19 60 -47 112 -38 71 -51 106 -51 137 0 39 5 47 64 105 44 43 73
63 90 63 30 0 105 -80 137 -148 13 -26 55 -99 94 -162 89 -142 105 -173 105
-201 0 -72 -200 -307 -305 -358 -123 -61 -282 -24 -399 93 -111 111 -212 285
-262 451 -23 76 -27 109 -28 215 -1 119 1 129 32 205 46 115 96 181 183 243
151 109 171 114 225 57z m5596 -341 c40 -36 100 -87 133 -112 131 -99 135
-108 79 -190 -44 -66 -169 -199 -194 -207 -25 -8 -63 13 -135 75 -33 29 -95
79 -138 112 -104 80 -109 92 -66 164 19 31 70 94 114 140 102 107 109 107 207
18z m-6261 -555 c221 -169 509 -430 558 -507 65 -104 78 -239 31 -337 -31 -65
-154 -189 -216 -218 -71 -32 -229 -32 -295 1 -119 58 -610 496 -625 558 -5 21
0 41 20 80 32 61 125 154 154 154 22 0 87 -48 317 -235 211 -171 265 -206 265
-172 0 16 -129 142 -285 279 -156 137 -225 211 -225 240 0 61 139 228 190 228
10 0 60 -32 111 -71z m-446 -813 c123 -32 252 -115 380 -242 132 -130 181
-252 173 -426 -4 -85 -5 -89 -52 -158 -132 -192 -266 -225 -494 -119 -112 51
-193 111 -283 207 -116 123 -169 243 -169 388 0 248 209 413 445 350z m-427
-703 c20 -10 120 -99 222 -198 182 -178 187 -182 305 -242 66 -34 130 -72 143
-86 46 -49 41 -169 -9 -220 -39 -39 -70 -35 -214 29 l-110 48 -236 5 c-214 5
-239 8 -258 25 -24 22 -27 66 -10 148 25 116 56 145 145 131 l39 -5 -62 58
c-34 33 -65 71 -69 87 -19 77 23 237 62 237 9 0 32 -8 52 -17z"/>
<path d="M3519 8374 c-7 -9 -15 -46 -17 -83 -7 -116 47 -272 114 -330 41 -36
45 -37 74 -13 60 49 12 306 -77 412 -28 34 -72 40 -94 14z"/>
<path d="M1727 6190 c-27 -38 -3 -93 71 -162 89 -83 201 -123 210 -75 12 63
-50 154 -147 216 -67 43 -113 50 -134 21z"/>
<path d="M9777 10275 c10 -12 45 -58 78 -101 109 -144 742 -929 765 -949 35
-32 52 -72 44 -108 -5 -25 -183 -210 -825 -854 -451 -452 -819 -827 -819 -834
0 -6 32 -46 72 -88 89 -95 425 -498 578 -693 63 -81 118 -147 122 -147 5 -1
2679 1482 2697 1495 5 4 -119 181 -213 304 -175 229 -315 389 -535 613 -590
600 -1319 1120 -1894 1350 -83 34 -87 35 -70 12z"/>
<path d="M2871 5531 c-45 -84 -203 -573 -189 -586 5 -5 428 481 428 492 0 4
-52 31 -115 60 -104 47 -116 50 -124 34z"/>
<path d="M3019 5148 c-34 -40 -72 -82 -84 -93 -45 -42 -283 -322 -309 -363
-49 -78 -18 -77 -671 -12 -319 32 -619 61 -667 64 l-87 7 -5 -33 c-13 -84 -17
-174 -17 -370 0 -228 10 -364 42 -603 21 -159 97 -565 109 -585 5 -8 238 66
799 257 l792 268 -8 155 c-4 85 -8 256 -7 380 1 255 14 364 70 591 30 123 48
188 105 382 4 15 6 27 4 27 -1 0 -31 -33 -66 -72z"/>
</g>
</svg>
